<svg viewBox="0 0 48 48" fill="none" xmlns="http://www.w3.org/2000/svg">
<g clip-path="url(#clip0_92_2)">
<g clip-path="url(#clip1_92_2)">
<path d="M36.75 0H11.25C5.0368 0 0 5.0368 0 11.25V36.75C0 42.9632 5.0368 48 11.25 48H36.75C42.9632 48 48 42.9632 48 36.75V11.25C48 5.0368 42.9632 0 36.75 0Z" fill="#242938"/>
<path d="M16.116 37.4862L20.7155 40.0399H27.671L34.1776 35.1546L37.0944 27.4935L30.3633 19.3885L28.4562 14.8363L19.145 15.1694L19.2571 17.7231L17.4622 21.0538L14.6576 26.4943L14.0967 31.0465L16.116 37.4862Z" fill="#ECEFF1"/>
<path d="M35.0743 21.498C33.2793 18.9442 31.821 17.3899 31.0357 14.1701C30.2505 10.9502 31.2602 11.8385 30.587 9.06276C30.2505 7.61938 29.6895 6.62012 29.1287 5.84291C28.4555 5.06571 27.6703 4.62159 27.2214 4.51056C26.2119 3.95542 23.856 3.06718 20.9392 4.62159C17.9102 6.17601 18.2468 9.50687 18.8077 16.2796C18.8077 16.7238 18.6955 17.2789 18.4711 17.723C18.0224 18.7223 17.2371 19.6104 16.564 20.3878C15.7787 21.498 14.9934 22.6084 14.4325 23.8296C13.0863 26.3833 11.8523 29.6031 12.1888 30.8244C12.7498 30.7134 19.8174 41.3722 19.8174 41.5942C20.2661 41.4832 22.1732 41.4833 23.856 41.4833C26.2119 41.3723 27.558 41.2612 29.4652 41.7052C29.4652 41.3722 29.3529 41.0391 29.3529 40.7061C29.3529 40.0399 29.4652 39.4847 29.5773 38.7075C29.6895 38.1523 29.8018 37.5973 29.9139 36.9311C28.7921 37.9303 26.7727 39.0407 24.8657 39.3737C23.1828 39.7067 20.3782 39.1517 19.032 37.4861C19.1443 37.4861 19.3685 37.4861 19.4808 37.3751C19.8174 37.2641 20.154 37.1531 20.2661 36.9311C20.6027 36.3759 20.3782 35.8208 20.154 35.4878C19.9295 35.1546 18.2468 33.9332 17.4615 33.2672C16.6762 32.601 16.2275 32.2678 15.7787 31.8238C15.7787 31.8238 15.1056 31.1576 14.8812 30.9354C14.6569 30.7134 14.5447 30.4914 14.4325 30.3802C14.2082 29.8252 14.096 29.1591 14.2082 28.2709C14.3203 27.0495 14.7691 26.0501 15.33 24.9399C15.5544 24.4957 16.1153 23.6076 16.1153 23.6076C16.1153 23.6076 14.2082 28.2709 15.2178 29.7142C15.2178 29.7142 15.33 28.2709 15.7787 26.8275C16.1153 25.8281 16.6762 24.3847 17.3493 23.6076C18.0224 22.8304 19.7051 19.9436 19.8174 18.1671C19.8174 17.3899 19.9295 16.6127 19.9295 16.0576C19.4808 15.6135 27.3337 14.5032 27.7824 15.7245C27.8945 16.1686 29.4652 20.1656 30.3626 22.2752C30.8113 23.2746 31.3723 24.1627 31.7088 25.2729C32.0454 26.4943 32.2697 28.1597 32.2697 29.8252C32.2697 30.1582 32.2697 30.7134 32.1575 31.2686C32.382 31.2686 36.7571 26.6053 31.5967 22.7194C31.5967 22.7194 34.7377 24.1628 34.85 27.0495C34.9622 29.3811 33.9525 31.2686 33.7282 31.6016C33.8403 31.6016 36.084 32.601 36.1961 32.601C36.645 32.601 37.5423 32.2678 37.5423 32.2678C37.6547 31.9348 37.991 31.0464 37.991 30.7134C38.7765 28.1597 36.8692 24.0517 35.0743 21.498Z" fill="#263238"/>
<path d="M20.8275 14.1701C21.633 14.1701 22.2859 13.1759 22.2859 11.9495C22.2859 10.7231 21.633 9.72894 20.8275 9.72894C20.0222 9.72894 19.3691 10.7231 19.3691 11.9495C19.3691 13.1759 20.0222 14.1701 20.8275 14.1701Z" fill="#ECEFF1"/>
<path d="M25.8758 14.3921C26.9292 14.3921 27.7831 13.2488 27.7831 11.8385C27.7831 10.4281 26.9292 9.28479 25.8758 9.28479C24.8226 9.28479 23.9688 10.4281 23.9688 11.8385C23.9688 13.2488 24.8226 14.3921 25.8758 14.3921Z" fill="#ECEFF1"/>
<path d="M21.6418 12.1014C21.5487 11.3714 21.1242 10.8232 20.6938 10.8771C20.2637 10.9309 19.9903 11.5663 20.0837 12.2964C20.1769 13.0264 20.6012 13.5745 21.0315 13.5207C21.4618 13.4669 21.735 12.8314 21.6418 12.1014Z" fill="#212121"/>
<path d="M25.7634 13.726C26.3831 13.726 26.8852 13.0798 26.8852 12.2826C26.8852 11.4855 26.3831 10.8392 25.7634 10.8392C25.1439 10.8392 24.6416 11.4855 24.6416 12.2826C24.6416 13.0798 25.1439 13.726 25.7634 13.726Z" fill="#212121"/>
<path d="M40.6838 36.7089C40.2351 36.4869 39.4497 36.1537 38.7765 35.1546C38.4402 34.5994 38.5523 33.045 37.9913 32.3788C37.6547 31.9348 37.206 32.1568 37.0939 32.1568C36.0842 32.3788 33.7283 33.9332 32.1578 32.1568C31.9333 31.9348 31.5968 31.6016 31.036 31.6016C30.475 31.6016 30.2507 31.8236 30.0263 32.2678C29.8018 32.712 29.8018 33.045 29.8018 34.1554C29.8018 35.0436 29.8018 36.0427 29.6897 36.8199C29.4653 38.7075 29.1289 39.8179 29.1289 40.9281C29.1289 42.1494 29.4653 42.9266 29.9142 43.2596C30.2507 43.5928 30.8115 43.8148 32.0457 43.8148C33.2796 43.8148 34.0648 43.3708 34.8503 42.5934C35.4111 42.0384 35.8598 41.8162 37.4305 40.7061C38.6644 39.9289 40.5717 38.9295 40.908 38.5965C41.1325 38.3745 41.469 38.2633 41.469 37.5971C41.469 37.0421 41.0203 36.8199 40.6838 36.7089Z" fill="#FFC107"/>
<path d="M18.1348 37.0421C17.0129 35.2655 16.9008 34.9325 16.1155 33.8222C15.4424 32.712 13.984 30.6024 13.0865 30.6024C12.4134 30.6024 12.0769 30.9354 11.6281 31.3796C11.1794 31.8236 10.7307 32.823 9.94537 33.3782C9.27227 33.9332 7.36515 33.8222 6.91641 34.4884C6.46766 35.1545 7.36515 36.1539 7.36515 37.8193C7.36515 38.4855 6.80422 38.9295 6.69204 39.3737C6.57986 39.9289 6.46766 40.2619 6.69204 40.706C7.14077 41.3722 7.70169 41.5942 11.5159 42.3714C13.5352 42.8156 15.4424 43.9258 16.6764 44.037C17.9104 44.148 20.0419 44.037 20.0419 41.039C20.1542 39.2627 19.1445 38.8185 18.1348 37.0421Z" fill="#FFC107"/>
<path d="M20.2664 16.9458C19.5932 16.5017 19.0322 16.0575 19.0322 15.3914C19.0322 14.7252 19.4811 14.5032 20.1542 13.948C20.2664 13.837 21.5003 12.7267 22.7344 12.7267C23.9684 12.7267 25.4267 13.5039 25.9877 13.7259C26.9974 13.948 28.0069 14.1701 27.8948 14.9473C27.7827 16.0575 27.6705 16.2796 26.5485 16.8348C25.7633 17.0568 24.3049 18.2781 23.2952 18.2781C22.8465 18.2781 22.1734 18.2781 21.7247 18.1671C21.3882 18.0561 20.8272 17.5009 20.2664 16.9458Z" fill="#FFC107"/>
<path d="M20.0414 16.0576C20.2659 16.2796 20.6024 16.5017 20.939 16.6127C21.1632 16.7238 21.4998 16.8348 21.4998 16.8348C21.9487 16.8348 22.2852 16.8348 22.5095 16.8348C23.0705 16.8348 23.8557 16.6127 24.641 16.1686C25.4262 15.8355 25.5385 15.6135 26.0994 15.3914C26.6604 15.0583 27.2212 14.7252 26.9969 14.6142C26.7725 14.5032 26.548 14.6142 25.7628 15.0583C25.0897 15.5024 24.5289 15.7245 23.8557 16.0576C23.5192 16.1686 23.0705 16.3907 22.7339 16.3907C22.3974 16.3907 22.0608 16.3907 21.7242 16.3907C21.3877 16.3907 21.1632 16.2796 20.8267 16.1686C20.6024 16.0576 20.4901 15.9465 20.378 15.9465C20.1537 15.8355 19.7049 15.3914 19.4806 15.2804C19.4806 15.2804 19.2562 15.2804 19.3683 15.3914C19.7049 15.7245 19.8172 15.8355 20.0414 16.0576Z" fill="#634703"/>
<path d="M23.4072 13.6149C23.5194 13.837 23.7438 13.837 23.8559 13.948C23.968 14.059 24.0802 14.059 24.0802 14.059C24.1925 13.948 24.0802 13.726 23.968 13.726C23.968 13.5039 23.4072 13.5039 23.4072 13.6149Z" fill="#634703"/>
<path d="M21.6123 13.837C21.6123 13.948 21.8366 14.059 21.8366 13.948C21.9489 13.837 22.061 13.726 22.1731 13.726C22.3976 13.6149 22.2852 13.5039 21.9489 13.5039C21.7244 13.6149 21.7244 13.726 21.6123 13.837Z" fill="#634703"/>
<path d="M32.4946 33.4892C32.4946 33.6002 32.4946 33.7112 32.4946 33.8222C32.719 34.2664 33.2798 34.3774 33.7285 34.3774C34.4016 34.3774 35.0748 33.9332 35.4113 33.4892C35.4113 33.3782 35.5235 33.267 35.6358 33.156C35.86 32.823 35.9723 32.601 36.0845 32.4898C36.0845 32.4898 35.9723 32.3788 35.9723 32.2678C35.86 32.0458 35.5235 31.8236 35.0748 31.7126C34.7382 31.6016 34.1774 31.4906 33.953 31.4906C32.9433 31.3796 32.3825 31.7126 32.0459 32.0458C32.0459 32.0458 32.158 32.0458 32.158 32.1568C32.3825 32.3788 32.4946 32.601 32.4946 32.934C32.6067 33.156 32.4946 33.267 32.4946 33.4892Z" fill="#455A64"/>
</g>
</g>
<defs>
<clipPath id="clip0_92_2">
<rect width="48" height="48" fill="white"/>
</clipPath>
<clipPath id="clip1_92_2">
<rect width="48" height="48" fill="white"/>
</clipPath>
</defs>
</svg>
