<svg viewBox="0 0 161 48" fill="none" xmlns="http://www.w3.org/2000/svg">
<g clip-path="url(#clip0_94_196)">
<g clip-path="url(#clip1_94_196)">
<path d="M36.75 0H11.25C5.0368 0 0 5.0368 0 11.25V36.75C0 42.9632 5.0368 48 11.25 48H36.75C42.9632 48 48 42.9632 48 36.75V11.25C48 5.0368 42.9632 0 36.75 0Z" fill="#FF3E00"/>
<mask id="mask0_94_196" style="mask-type:luminance" maskUnits="userSpaceOnUse" x="9" y="7" width="29" height="34">
<path d="M37.9958 7.125H9.9375V40.875H37.9958V7.125Z" fill="white"/>
</mask>
<g mask="url(#mask0_94_196)">
<path d="M36.1942 11.5868C33.0767 7.09637 26.87 5.7807 22.4083 8.61227L14.5427 13.6462C12.3976 14.9904 10.9103 17.1928 10.4813 19.6811C10.1095 21.7691 10.4241 23.9141 11.4251 25.7734C10.7387 26.8029 10.2811 27.947 10.0809 29.1484C9.62325 31.6939 10.2239 34.3252 11.7112 36.413C14.8573 40.9037 21.0352 42.2192 25.4972 39.3877L33.3626 34.3824C35.5078 33.038 36.995 30.8359 37.424 28.3474C37.7959 26.2595 37.4812 24.1144 36.4802 22.2553C37.1666 21.2255 37.6243 20.0816 37.8245 18.8803C38.3107 16.3061 37.7102 13.6748 36.1942 11.5868Z" fill="white"/>
<path d="M21.6363 36.8421C19.0908 37.5 16.4308 36.499 14.9435 34.3538C14.0282 33.0953 13.685 31.5224 13.9424 29.9777C13.9996 29.7203 14.0568 29.4915 14.114 29.2341L14.257 28.7766L14.6574 29.0625C15.6013 29.749 16.631 30.2639 17.7464 30.607L18.0324 30.6929L18.0038 30.9788C17.9752 31.3793 18.0896 31.8083 18.3185 32.1516C18.7762 32.8094 19.577 33.124 20.3491 32.9237C20.5209 32.8665 20.6924 32.8093 20.8355 32.7235L28.6722 27.7182C29.0727 27.4609 29.3302 27.0891 29.4159 26.6314C29.5017 26.1737 29.3874 25.6875 29.1299 25.3157C28.6722 24.6578 27.8714 24.3718 27.0991 24.5721C26.9275 24.6293 26.756 24.6865 26.6129 24.7724L23.6097 26.6886C23.1235 27.0032 22.5802 27.232 22.0081 27.375C19.4626 28.0328 16.8026 27.0317 15.3153 24.8867C14.4286 23.6282 14.0568 22.0551 14.3428 20.5107C14.6002 19.0234 15.5155 17.6791 16.8026 16.8782L24.668 11.8729C25.1542 11.5583 25.6977 11.3295 26.2698 11.1579C28.8153 10.5 31.4752 11.5011 32.9626 13.6462C33.8778 14.9047 34.2209 16.4778 33.9637 18.0223C33.9063 18.2797 33.8491 18.5085 33.7634 18.766L33.6204 19.2235L33.2199 18.9375C32.2762 18.2511 31.2464 17.7363 30.131 17.393L29.8449 17.3072L29.8735 17.0212C29.9022 16.6208 29.7877 16.1918 29.5589 15.8486C29.1012 15.1907 28.3004 14.9047 27.5283 15.1049C27.3565 15.1621 27.185 15.2193 27.0419 15.3051L19.2052 20.3104C18.8047 20.5679 18.5473 20.9397 18.4615 21.3974C18.3757 21.8549 18.4901 22.3412 18.7475 22.713C19.2052 23.3708 20.006 23.6567 20.7783 23.4567C20.9499 23.3995 21.1214 23.3421 21.2645 23.2564L24.2677 21.3402C24.7539 21.0255 25.2972 20.7966 25.8693 20.625C28.4148 19.9671 31.0749 20.9682 32.5621 23.1134C33.4773 24.3719 33.8206 25.945 33.5632 27.4894C33.3057 28.9767 32.3905 30.321 31.1034 31.1219L23.2379 36.1272C22.7517 36.4418 22.2084 36.6705 21.6363 36.8421Z" fill="#FF3E00"/>
</g>
</g>
<g clip-path="url(#clip2_94_196)">
<path d="M93 0H67.5C61.2868 0 56.25 5.0368 56.25 11.25V36.75C56.25 42.9632 61.2868 48 67.5 48H93C99.2132 48 104.25 42.9632 104.25 36.75V11.25C104.25 5.0368 99.2132 0 93 0Z" fill="#242938"/>
<path d="M80.2502 5.625C69.8961 5.625 61.5 14.0195 61.5 24.3752C61.5 32.6595 66.8725 39.6878 74.3225 42.1671C75.2595 42.3407 75.6036 41.7604 75.6036 41.2652C75.6036 40.818 75.5861 39.3411 75.5781 37.7743C70.3618 38.9085 69.2611 35.562 69.2611 35.562C68.4082 33.3947 67.1793 32.8185 67.1793 32.8185C65.4781 31.6547 67.3075 31.6787 67.3075 31.6787C69.1903 31.8109 70.1817 33.6109 70.1817 33.6109C71.8541 36.4774 74.5681 35.6486 75.6381 35.1696C75.8064 33.9576 76.2922 33.1305 76.8285 32.6623C72.6638 32.1881 68.2859 30.5803 68.2859 23.3959C68.2859 21.3488 69.0183 19.6761 70.2178 18.363C70.0231 17.8908 69.3813 15.9837 70.3994 13.401C70.3994 13.401 71.9739 12.8971 75.5571 15.323C77.0528 14.9075 78.6566 14.6992 80.2502 14.6921C81.8436 14.6992 83.4489 14.9075 84.9473 15.323C88.5261 12.8971 90.0984 13.401 90.0984 13.401C91.119 15.9837 90.477 17.8908 90.2822 18.363C91.4844 19.6761 92.2119 21.3488 92.2119 23.3959C92.2119 30.5976 87.8256 32.1833 83.6503 32.6473C84.3229 33.2293 84.9221 34.3703 84.9221 36.1196C84.9221 38.6284 84.9004 40.6476 84.9004 41.2652C84.9004 41.7641 85.2379 42.3488 86.1883 42.1646C93.6343 39.6825 99 32.6567 99 24.3752C99 14.0195 90.6051 5.625 80.2502 5.625ZM68.5225 32.3349C68.4812 32.4281 68.3347 32.4561 68.2012 32.3921C68.0652 32.331 67.9888 32.2039 68.0329 32.1105C68.0733 32.0145 68.2201 31.9879 68.3558 32.0522C68.4921 32.1133 68.5697 32.2416 68.5225 32.3349ZM69.4448 33.1579C69.3554 33.2409 69.1806 33.2023 69.062 33.0713C68.9394 32.9406 68.9164 32.7658 69.007 32.6816C69.0993 32.5988 69.2688 32.6376 69.3917 32.7683C69.5144 32.9006 69.5383 33.0741 69.4448 33.1579ZM70.0776 34.2109C69.9627 34.2908 69.7748 34.2159 69.6587 34.0491C69.5438 33.8824 69.5438 33.6825 69.6612 33.6023C69.7776 33.5222 69.9627 33.5942 70.0804 33.7598C70.1949 33.9293 70.1949 34.1293 70.0776 34.2109ZM71.1477 35.4304C71.0449 35.5436 70.826 35.5133 70.6658 35.3586C70.5018 35.2074 70.4562 34.9929 70.5593 34.8795C70.6633 34.7659 70.8834 34.7979 71.0449 34.9513C71.2076 35.1021 71.2573 35.3183 71.1477 35.4304ZM72.5306 35.8419C72.4853 35.9889 72.2745 36.0557 72.0621 35.9933C71.85 35.9289 71.7112 35.757 71.7541 35.6085C71.7982 35.4608 72.0099 35.3912 72.2239 35.4579C72.4356 35.5219 72.5747 35.6927 72.5306 35.8419ZM74.1045 36.0167C74.1098 36.1712 73.9297 36.2994 73.7068 36.3023C73.4826 36.3073 73.3013 36.1821 73.2988 36.03C73.2988 35.8738 73.4749 35.7469 73.699 35.7431C73.922 35.7388 74.1045 35.8629 74.1045 36.0167ZM75.6506 35.9574C75.6774 36.1082 75.5226 36.2633 75.3011 36.3045C75.0834 36.3443 74.8819 36.2511 74.8543 36.1014C74.8273 35.9468 74.985 35.7919 75.2023 35.7518C75.4241 35.7133 75.6225 35.8041 75.6506 35.9574Z" fill="white"/>
</g>
<g clip-path="url(#clip3_94_196)">
<path d="M149.25 0H123.75C117.537 0 112.5 5.0368 112.5 11.25V36.75C112.5 42.9632 117.537 48 123.75 48H149.25C155.463 48 160.5 42.9632 160.5 36.75V11.25C160.5 5.0368 155.463 0 149.25 0Z" fill="#242938"/>
<mask id="mask1_94_196" style="mask-type:luminance" maskUnits="userSpaceOnUse" x="117" y="5" width="39" height="38">
<path d="M155.25 5.25H117.75V42.75H155.25V5.25Z" fill="white"/>
</mask>
<g mask="url(#mask1_94_196)">
<path d="M127.312 32.2032H152.129V25.336L147.415 22.6324L146.602 22.2809L127.312 22.4133V32.2032Z" fill="white"/>
<path d="M143.545 31.2914C143.776 30.5005 143.688 29.7751 143.304 29.236C142.952 28.7414 142.358 28.4554 141.645 28.4226L128.115 28.2469C128.027 28.2469 127.951 28.2023 127.907 28.1367C127.862 28.0711 127.852 27.9844 127.874 27.8954C127.918 27.763 128.05 27.6646 128.193 27.6539L141.843 27.4782C143.46 27.4007 145.218 26.0929 145.832 24.4898L146.612 22.4567C146.647 22.3731 146.655 22.2812 146.636 22.1929C145.757 18.2145 142.206 15.2473 137.964 15.2473C134.05 15.2473 130.733 17.7751 129.545 21.2824C128.775 20.7106 127.787 20.4036 126.742 20.5021C124.862 20.6896 123.343 22.1942 123.17 24.0739C123.124 24.5414 123.158 25.0131 123.268 25.4695C121.79 25.5096 120.385 26.1257 119.354 27.1866C118.323 28.2475 117.748 29.6693 117.75 31.1485C117.75 31.4226 117.773 31.6992 117.805 31.9724C117.829 32.1047 117.938 32.2032 118.069 32.2032H143.039C143.111 32.2019 143.18 32.1777 143.238 32.1344C143.295 32.0909 143.337 32.0305 143.358 31.9617L143.545 31.2914Z" fill="#F38020"/>
<path d="M147.853 22.5974L147.478 22.609C147.39 22.609 147.314 22.6747 147.279 22.7615L146.752 24.5965C146.521 25.3876 146.609 26.113 146.993 26.6521C147.345 27.1465 147.939 27.4325 148.652 27.4653L151.532 27.6412C151.62 27.6412 151.696 27.6856 151.74 27.7512C151.785 27.8168 151.796 27.9153 151.773 27.9927C151.729 28.1251 151.598 28.2235 151.454 28.234L148.454 28.4099C146.828 28.4872 145.079 29.795 144.465 31.3981L144.245 31.9583C144.201 32.0684 144.278 32.1787 144.398 32.1787H154.707C154.766 32.1794 154.824 32.1605 154.872 32.1247C154.92 32.0888 154.954 32.038 154.97 31.9805C155.153 31.3306 155.247 30.6588 155.25 29.9836C155.245 28.0248 154.463 26.1477 153.077 24.7636C151.691 23.3795 149.812 22.601 147.853 22.5985" fill="#FAAE40"/>
</g>
</g>
</g>
<defs>
<clipPath id="clip0_94_196">
<rect width="160.5" height="48" fill="white"/>
</clipPath>
<clipPath id="clip1_94_196">
<rect width="48" height="48" fill="white"/>
</clipPath>
<clipPath id="clip2_94_196">
<rect width="48" height="48" fill="white" transform="translate(56.25)"/>
</clipPath>
<clipPath id="clip3_94_196">
<rect width="48" height="48" fill="white" transform="translate(112.5)"/>
</clipPath>
</defs>
</svg>
