<svg  viewBox="0 0 330 48" fill="none" xmlns="http://www.w3.org/2000/svg">
<g clip-path="url(#clip0_94_154)">
<g clip-path="url(#clip1_94_154)">
<path d="M36.75 0H11.25C5.0368 0 0 5.0368 0 11.25V36.75C0 42.9632 5.0368 48 11.25 48H36.75C42.9632 48 48 42.9632 48 36.75V11.25C48 5.0368 42.9632 0 36.75 0Z" fill="#FF3E00"/>
<mask id="mask0_94_154" style="mask-type:luminance" maskUnits="userSpaceOnUse" x="9" y="7" width="29" height="34">
<path d="M37.9958 7.125H9.9375V40.875H37.9958V7.125Z" fill="white"/>
</mask>
<g mask="url(#mask0_94_154)">
<path d="M36.1942 11.5868C33.0767 7.09637 26.87 5.7807 22.4083 8.61227L14.5427 13.6462C12.3976 14.9904 10.9103 17.1928 10.4813 19.6811C10.1095 21.7691 10.4241 23.9141 11.4251 25.7734C10.7387 26.8029 10.2811 27.947 10.0809 29.1484C9.62325 31.6939 10.2239 34.3252 11.7112 36.413C14.8573 40.9037 21.0352 42.2192 25.4972 39.3877L33.3626 34.3824C35.5078 33.038 36.995 30.8359 37.424 28.3474C37.7959 26.2595 37.4812 24.1144 36.4802 22.2553C37.1666 21.2255 37.6243 20.0816 37.8245 18.8803C38.3107 16.3061 37.7102 13.6748 36.1942 11.5868Z" fill="white"/>
<path d="M21.6363 36.8421C19.0908 37.5 16.4308 36.499 14.9435 34.3538C14.0282 33.0953 13.685 31.5224 13.9424 29.9777C13.9996 29.7203 14.0568 29.4915 14.114 29.2341L14.257 28.7766L14.6574 29.0625C15.6013 29.749 16.631 30.2639 17.7464 30.607L18.0324 30.6929L18.0038 30.9788C17.9752 31.3793 18.0896 31.8083 18.3185 32.1516C18.7762 32.8094 19.577 33.124 20.3491 32.9237C20.5209 32.8665 20.6924 32.8093 20.8355 32.7235L28.6722 27.7182C29.0727 27.4609 29.3302 27.0891 29.4159 26.6314C29.5017 26.1737 29.3874 25.6875 29.1299 25.3157C28.6722 24.6578 27.8714 24.3718 27.0991 24.5721C26.9275 24.6293 26.756 24.6865 26.6129 24.7724L23.6097 26.6886C23.1235 27.0032 22.5802 27.232 22.0081 27.375C19.4626 28.0328 16.8026 27.0317 15.3153 24.8867C14.4286 23.6282 14.0568 22.0551 14.3428 20.5107C14.6002 19.0234 15.5155 17.6791 16.8026 16.8782L24.668 11.8729C25.1542 11.5583 25.6977 11.3295 26.2698 11.1579C28.8153 10.5 31.4752 11.5011 32.9626 13.6462C33.8778 14.9047 34.2209 16.4778 33.9637 18.0223C33.9063 18.2797 33.8491 18.5085 33.7634 18.766L33.6204 19.2235L33.2199 18.9375C32.2762 18.2511 31.2464 17.7363 30.131 17.393L29.8449 17.3072L29.8735 17.0212C29.9022 16.6208 29.7877 16.1918 29.5589 15.8486C29.1012 15.1907 28.3004 14.9047 27.5283 15.1049C27.3565 15.1621 27.185 15.2193 27.0419 15.3051L19.2052 20.3104C18.8047 20.5679 18.5473 20.9397 18.4615 21.3974C18.3757 21.8549 18.4901 22.3412 18.7475 22.713C19.2052 23.3708 20.006 23.6567 20.7783 23.4567C20.9499 23.3995 21.1214 23.3421 21.2645 23.2564L24.2677 21.3402C24.7539 21.0255 25.2972 20.7966 25.8693 20.625C28.4148 19.9671 31.0749 20.9682 32.5621 23.1134C33.4773 24.3719 33.8206 25.945 33.5632 27.4894C33.3057 28.9767 32.3905 30.321 31.1034 31.1219L23.2379 36.1272C22.7517 36.4418 22.2084 36.6705 21.6363 36.8421Z" fill="#FF3E00"/>
</g>
</g>
<g clip-path="url(#clip2_94_154)">
<path d="M93 0H67.5C61.2868 0 56.25 5.0368 56.25 11.25V36.75C56.25 42.9632 61.2868 48 67.5 48H93C99.2132 48 104.25 42.9632 104.25 36.75V11.25C104.25 5.0368 99.2132 0 93 0Z" fill="#F0DB4F"/>
<path d="M68.8712 40.1123L72.5445 37.8893C73.2531 39.1457 73.8978 40.2089 75.444 40.2089C76.9262 40.2089 77.8607 39.6291 77.8607 37.3739V22.0367H82.3716V37.4376C82.3716 42.1096 79.633 44.2362 75.6374 44.2362C72.029 44.2362 69.9343 42.3674 68.8711 40.1119" fill="#323330"/>
<path d="M84.8213 39.6289L88.494 37.5024C89.461 39.0814 90.7176 40.2412 92.9406 40.2412C94.8098 40.2412 96.0015 39.3067 96.0015 38.0179C96.0015 36.4714 94.7772 35.9235 92.715 35.0216L91.5876 34.5381C88.3332 33.1528 86.1743 31.4128 86.1743 27.7397C86.1743 24.3564 88.752 21.7787 92.7797 21.7787C95.6474 21.7787 97.7095 22.7777 99.1915 25.3875L95.6794 27.6429C94.906 26.2575 94.0686 25.7098 92.7797 25.7098C91.4586 25.7098 90.6209 26.5476 90.6209 27.6429C90.6209 28.9961 91.4586 29.544 93.3917 30.3819L94.5194 30.8651C98.3535 32.5086 100.512 34.1837 100.512 37.9534C100.512 42.0135 97.3227 44.2365 93.0374 44.2365C88.8488 44.2365 86.1422 42.2389 84.8213 39.6289Z" fill="#323330"/>
</g>
<g clip-path="url(#clip3_94_154)">
<path d="M149.25 0H123.75C117.537 0 112.5 5.0368 112.5 11.25V36.75C112.5 42.9632 117.537 48 123.75 48H149.25C155.463 48 160.5 42.9632 160.5 36.75V11.25C160.5 5.0368 155.463 0 149.25 0Z" fill="#242938"/>
<path d="M134.977 5.83432C135.899 5.3064 137.101 5.30405 138.022 5.83432C142.657 8.45353 147.294 11.0687 151.929 13.6895C152.801 14.1805 153.384 15.1507 153.375 16.1551V31.9136C153.381 32.9597 152.741 33.9531 151.821 34.4329C147.201 37.0378 142.583 39.6457 137.963 42.2507C137.022 42.7888 135.797 42.7474 134.885 42.165C133.5 41.3621 132.113 40.563 130.727 39.7609C130.444 39.5921 130.125 39.4579 129.925 39.1834C130.102 38.9452 130.418 38.9156 130.675 38.8116C131.253 38.6276 131.784 38.3325 132.315 38.0462C132.449 37.9543 132.613 37.9896 132.742 38.0717C133.926 38.7508 135.101 39.4498 136.289 40.1224C136.542 40.2688 136.799 40.0744 137.016 39.9536C141.55 37.3911 146.089 34.8384 150.622 32.2751C150.79 32.1943 150.883 32.016 150.869 31.8321C150.872 26.6336 150.87 21.4344 150.871 16.236C150.89 16.0272 150.769 15.8353 150.581 15.7498C145.976 13.1569 141.374 10.5601 136.771 7.96654C136.608 7.85424 136.392 7.85396 136.229 7.96569C131.625 10.5601 127.024 13.1593 122.421 15.7521C122.233 15.8377 122.107 16.0265 122.129 16.236C122.13 21.4344 122.129 26.6336 122.129 31.8328C122.113 32.0167 122.213 32.1913 122.379 32.2704C123.608 32.967 124.838 33.6587 126.067 34.353C126.76 34.7256 127.61 34.9472 128.373 34.6616C129.046 34.4201 129.518 33.7329 129.505 33.0182C129.512 27.8501 129.502 22.6813 129.51 17.514C129.493 17.2845 129.711 17.095 129.934 17.1166C130.524 17.1126 131.115 17.1086 131.705 17.1182C131.952 17.1126 132.121 17.3596 132.091 17.5908C132.089 22.7916 132.097 27.9924 132.087 33.1931C132.089 34.5793 131.519 36.0876 130.237 36.7657C128.658 37.5838 126.705 37.4104 125.145 36.6259C123.794 35.9516 122.505 35.1559 121.178 34.4336C120.256 33.9564 119.619 32.9591 119.625 31.9138V16.1551C119.615 15.1299 120.222 14.1421 121.121 13.6583C125.74 11.0514 130.359 8.44239 134.977 5.83432Z" fill="#81CD39"/>
<path d="M139.007 16.7504C141.022 16.6206 143.179 16.6736 144.991 17.666C146.395 18.4267 147.173 20.023 147.198 21.5824C147.159 21.7926 146.939 21.9086 146.738 21.8942C146.154 21.8935 145.569 21.9023 144.985 21.8903C144.736 21.8998 144.592 21.6713 144.561 21.4521C144.393 20.7058 143.986 19.9669 143.284 19.6069C142.206 19.0673 140.956 19.0945 139.78 19.1057C138.922 19.1511 137.999 19.2255 137.272 19.7301C136.714 20.1124 136.545 20.8841 136.744 21.5057C136.932 21.952 137.447 22.096 137.868 22.2287C140.296 22.8638 142.869 22.8004 145.251 23.6361C146.237 23.9768 147.201 24.6392 147.539 25.6716C147.98 27.0553 147.787 28.7091 146.802 29.8198C146.004 30.7339 144.841 31.2315 143.682 31.5017C142.139 31.8458 140.538 31.8546 138.971 31.7018C137.498 31.5338 135.965 31.1468 134.827 30.1431C133.855 29.2986 133.38 27.9827 133.427 26.713C133.438 26.4985 133.652 26.3488 133.857 26.3665C134.446 26.3618 135.035 26.3601 135.623 26.3674C135.859 26.3505 136.033 26.5538 136.045 26.7754C136.153 27.4862 136.42 28.2325 137.041 28.6538C138.237 29.4257 139.738 29.3728 141.108 29.3944C142.243 29.3441 143.517 29.329 144.443 28.5788C144.932 28.1509 145.076 27.435 144.944 26.8193C144.801 26.2993 144.257 26.0571 143.79 25.8986C141.394 25.1406 138.792 25.4156 136.418 24.5582C135.454 24.2177 134.523 23.5738 134.152 22.5838C133.636 21.1826 133.873 19.4494 134.96 18.3762C136.021 17.3085 137.551 16.8975 139.007 16.7504Z" fill="#81CD39"/>
</g>
<g clip-path="url(#clip4_94_154)">
<path d="M205.5 0H180C173.787 0 168.75 5.0368 168.75 11.25V36.75C168.75 42.9632 173.787 48 180 48H205.5C211.713 48 216.75 42.9632 216.75 36.75V11.25C216.75 5.0368 211.713 0 205.5 0Z" fill="#242938"/>
<mask id="mask1_94_154" style="mask-type:luminance" maskUnits="userSpaceOnUse" x="175" y="7" width="35" height="34">
<path d="M209.625 7.125H175.875V40.875H209.625V7.125Z" fill="white"/>
</mask>
<g mask="url(#mask1_94_154)">
<path fill-rule="evenodd" clip-rule="evenodd" d="M206.963 33.4144C205.127 33.3634 203.703 33.5515 202.51 34.0536C202.166 34.1916 201.615 34.1916 201.569 34.6241C201.753 34.8056 201.775 35.1026 201.936 35.3543C202.211 35.8108 202.694 36.4258 203.13 36.745L204.598 37.7946C205.494 38.3415 206.503 38.6612 207.376 39.2087C207.881 39.5282 208.385 39.9388 208.891 40.2814C209.148 40.4638 209.304 40.761 209.625 40.8745V40.8055C209.465 40.6009 209.418 40.3045 209.258 40.0753L208.569 39.4142C207.904 38.5247 207.077 37.7485 206.182 37.1104C205.447 36.6085 203.841 35.9243 203.543 35.0807L203.497 35.0295C204.002 34.9785 204.598 34.801 205.081 34.6641C205.862 34.4595 206.573 34.5045 207.376 34.2994L208.478 33.9799V33.7753C208.065 33.3649 207.766 32.8172 207.331 32.4298C206.16 31.4261 204.874 30.445 203.543 29.6239C202.831 29.1679 201.913 28.8707 201.156 28.4837C200.879 28.3466 200.421 28.2782 200.26 28.0502C199.846 27.5492 199.617 26.887 199.319 26.2935L197.437 22.3245C197.024 21.4348 196.771 20.5451 196.267 19.7241C193.902 15.8461 191.331 13.4968 187.383 11.1925C186.534 10.7134 185.524 10.5074 184.451 10.2569L182.729 10.1648C182.361 10.0053 181.995 9.57176 181.673 9.36623C180.365 8.54513 176.99 6.7659 176.026 9.11059C175.406 10.5933 176.944 12.053 177.466 12.8061C177.857 13.3306 178.361 13.9237 178.638 14.5168C178.792 14.9043 178.843 15.3154 179.004 15.726C179.371 16.7296 179.716 17.8477 180.198 18.7834C180.455 19.2625 180.725 19.765 181.047 20.1981C181.231 20.4536 181.552 20.5631 181.621 20.9736C181.299 21.4301 181.277 22.1138 181.093 22.6849C180.266 25.2626 180.588 28.4561 181.758 30.354C182.126 30.924 182.993 32.1791 184.169 31.6997C185.202 31.2891 184.972 29.989 185.27 28.8482C185.34 28.5748 185.293 28.3922 185.431 28.2092V28.2604L186.372 30.1536C187.084 31.2713 188.324 32.4349 189.356 33.211C189.906 33.6216 190.343 34.3292 191.031 34.5797V34.5107H190.986C190.848 34.3061 190.641 34.2141 190.457 34.0545C190.044 33.6441 189.585 33.142 189.264 32.686C188.3 31.4087 187.451 29.994 186.694 28.5343C186.326 27.8273 186.004 27.0516 185.707 26.3445C185.568 26.0706 185.568 25.6594 185.339 25.5235C184.994 26.0245 184.49 26.4591 184.237 27.0746C183.8 28.0553 183.755 29.2645 183.595 30.5192C183.502 30.5421 183.543 30.5192 183.502 30.5702C182.768 30.3883 182.515 29.6346 182.24 28.9965C181.552 27.3769 181.436 24.7765 182.033 22.9058C182.194 22.4267 182.883 20.9211 182.608 20.4649C182.469 20.0314 182.011 19.7809 181.758 19.4383C181.459 19.0048 181.139 18.4577 180.932 17.9786C180.382 16.7004 180.106 15.2868 179.509 14.0091C179.233 13.416 178.751 12.7999 178.361 12.2529C177.925 11.6368 177.444 11.2032 177.099 10.4736C176.984 10.218 176.824 9.81206 177.007 9.53801C177.053 9.3555 177.145 9.28238 177.328 9.24148C177.626 8.98585 178.476 9.31 178.774 9.44599C179.623 9.78853 180.335 10.1076 181.046 10.5861C181.368 10.8142 181.713 11.2477 182.126 11.3622H182.608C183.343 11.5218 184.169 11.4134 184.856 11.6179C186.073 12.0065 187.175 12.576 188.162 13.1926C191.169 15.0858 193.649 17.7777 195.324 20.9946C195.599 21.5192 195.714 21.9983 195.967 22.5458C196.449 23.664 197.046 24.8042 197.527 25.8998C198.01 26.9719 198.469 28.0676 199.157 28.9571C199.502 29.4362 200.878 29.6867 201.498 29.9378C201.957 30.1423 202.668 30.3265 203.082 30.577C203.862 31.056 204.643 31.6035 205.377 32.1281C205.744 32.4011 206.892 32.9717 206.96 33.4268L206.963 33.4144ZM183.555 13.5914C183.238 13.5886 182.922 13.6269 182.614 13.7054V13.7565H182.66C182.843 14.1216 183.165 14.3726 183.394 14.6922L183.923 15.7873L183.968 15.7362C184.29 15.5081 184.451 15.1431 184.451 14.596C184.313 14.4365 184.29 14.2765 184.175 14.117C184.037 13.889 183.739 13.7744 183.555 13.5924V13.5914Z" fill="white"/>
</g>
</g>
<g clip-path="url(#clip5_94_154)">
<path d="M261.75 0H236.25C230.037 0 225 5.0368 225 11.25V36.75C225 42.9632 230.037 48 236.25 48H261.75C267.963 48 273 42.9632 273 36.75V11.25C273 5.0368 267.963 0 261.75 0Z" fill="#242938"/>
<path d="M249 5.625C238.646 5.625 230.25 14.0195 230.25 24.3752C230.25 32.6595 235.622 39.6878 243.073 42.1671C244.01 42.3407 244.354 41.7604 244.354 41.2652C244.354 40.818 244.336 39.3411 244.328 37.7743C239.112 38.9085 238.011 35.562 238.011 35.562C237.158 33.3947 235.929 32.8185 235.929 32.8185C234.228 31.6547 236.057 31.6787 236.057 31.6787C237.94 31.8109 238.932 33.6109 238.932 33.6109C240.604 36.4774 243.318 35.6486 244.388 35.1696C244.556 33.9576 245.042 33.1305 245.578 32.6623C241.414 32.1881 237.036 30.5803 237.036 23.3959C237.036 21.3488 237.768 19.6761 238.968 18.363C238.773 17.8908 238.131 15.9837 239.149 13.401C239.149 13.401 240.724 12.8971 244.307 15.323C245.803 14.9075 247.407 14.6992 249 14.6921C250.594 14.6992 252.199 14.9075 253.697 15.323C257.276 12.8971 258.848 13.401 258.848 13.401C259.869 15.9837 259.227 17.8908 259.032 18.363C260.234 19.6761 260.962 21.3488 260.962 23.3959C260.962 30.5976 256.576 32.1833 252.4 32.6473C253.073 33.2293 253.672 34.3703 253.672 36.1196C253.672 38.6284 253.65 40.6476 253.65 41.2652C253.65 41.7641 253.988 42.3488 254.938 42.1646C262.384 39.6825 267.75 32.6567 267.75 24.3752C267.75 14.0195 259.355 5.625 249 5.625ZM237.273 32.3349C237.231 32.4281 237.085 32.4561 236.951 32.3921C236.815 32.331 236.739 32.2039 236.783 32.1105C236.823 32.0145 236.97 31.9879 237.106 32.0522C237.242 32.1133 237.32 32.2416 237.273 32.3349ZM238.195 33.1579C238.105 33.2409 237.931 33.2023 237.812 33.0713C237.689 32.9406 237.666 32.7658 237.757 32.6816C237.849 32.5988 238.019 32.6376 238.142 32.7683C238.264 32.9006 238.288 33.0741 238.195 33.1579ZM238.828 34.2109C238.713 34.2908 238.525 34.2159 238.409 34.0491C238.294 33.8824 238.294 33.6825 238.411 33.6023C238.528 33.5222 238.713 33.5942 238.83 33.7598C238.945 33.9293 238.945 34.1293 238.828 34.2109ZM239.898 35.4304C239.795 35.5436 239.576 35.5133 239.416 35.3586C239.252 35.2074 239.206 34.9929 239.309 34.8795C239.413 34.7659 239.633 34.7979 239.795 34.9513C239.958 35.1021 240.007 35.3183 239.898 35.4304ZM241.281 35.8419C241.235 35.9889 241.024 36.0557 240.812 35.9933C240.6 35.9289 240.461 35.757 240.504 35.6085C240.548 35.4608 240.76 35.3912 240.974 35.4579C241.186 35.5219 241.325 35.6927 241.281 35.8419ZM242.855 36.0167C242.86 36.1712 242.68 36.2994 242.457 36.3023C242.233 36.3073 242.051 36.1821 242.049 36.03C242.049 35.8738 242.225 35.7469 242.449 35.7431C242.672 35.7388 242.855 35.8629 242.855 36.0167ZM244.401 35.9574C244.427 36.1082 244.273 36.2633 244.051 36.3045C243.833 36.3443 243.632 36.2511 243.604 36.1014C243.577 35.9468 243.735 35.7919 243.952 35.7518C244.174 35.7133 244.373 35.8041 244.401 35.9574Z" fill="white"/>
</g>
<g clip-path="url(#clip6_94_154)">
<path d="M318 0H292.5C286.287 0 281.25 5.0368 281.25 11.25V36.75C281.25 42.9632 286.287 48 292.5 48H318C324.213 48 329.25 42.9632 329.25 36.75V11.25C329.25 5.0368 324.213 0 318 0Z" fill="#242938"/>
<mask id="mask2_94_154" style="mask-type:luminance" maskUnits="userSpaceOnUse" x="286" y="5" width="38" height="38">
<path d="M324 5.25H286.5V42.75H324V5.25Z" fill="white"/>
</mask>
<g mask="url(#mask2_94_154)">
<path d="M296.062 32.2032H320.879V25.336L316.165 22.6324L315.352 22.2809L296.062 22.4133V32.2032Z" fill="white"/>
<path d="M312.295 31.2914C312.526 30.5005 312.438 29.7751 312.054 29.236C311.702 28.7414 311.108 28.4554 310.395 28.4226L296.865 28.2469C296.777 28.2469 296.701 28.2023 296.657 28.1367C296.612 28.0711 296.602 27.9844 296.624 27.8954C296.668 27.763 296.8 27.6646 296.943 27.6539L310.593 27.4782C312.21 27.4007 313.968 26.0929 314.582 24.4898L315.362 22.4567C315.397 22.3731 315.405 22.2812 315.386 22.1929C314.507 18.2145 310.956 15.2473 306.714 15.2473C302.8 15.2473 299.483 17.7751 298.295 21.2824C297.525 20.7106 296.537 20.4036 295.492 20.5021C293.612 20.6896 292.093 22.1942 291.92 24.0739C291.874 24.5414 291.908 25.0131 292.018 25.4695C290.54 25.5096 289.135 26.1257 288.104 27.1866C287.073 28.2475 286.498 29.6693 286.5 31.1485C286.5 31.4226 286.523 31.6992 286.555 31.9724C286.579 32.1047 286.688 32.2032 286.819 32.2032H311.789C311.861 32.2019 311.93 32.1777 311.988 32.1344C312.045 32.0909 312.087 32.0305 312.108 31.9617L312.295 31.2914Z" fill="#F38020"/>
<path d="M316.603 22.5974L316.228 22.609C316.14 22.609 316.064 22.6747 316.029 22.7615L315.502 24.5965C315.271 25.3876 315.359 26.113 315.743 26.6521C316.095 27.1465 316.689 27.4325 317.402 27.4653L320.282 27.6412C320.37 27.6412 320.446 27.6856 320.49 27.7512C320.535 27.8168 320.546 27.9153 320.523 27.9927C320.479 28.1251 320.348 28.2235 320.204 28.234L317.204 28.4099C315.578 28.4872 313.829 29.795 313.215 31.3981L312.995 31.9583C312.951 32.0684 313.028 32.1787 313.148 32.1787H323.457C323.516 32.1794 323.574 32.1605 323.622 32.1247C323.67 32.0888 323.704 32.038 323.72 31.9805C323.903 31.3306 323.997 30.6588 324 29.9836C323.995 28.0248 323.213 26.1477 321.827 24.7636C320.441 23.3795 318.562 22.601 316.603 22.5985" fill="#FAAE40"/>
</g>
</g>
</g>
<defs>
<clipPath id="clip0_94_154">
<rect width="329.25" height="48" fill="white"/>
</clipPath>
<clipPath id="clip1_94_154">
<rect width="48" height="48" fill="white"/>
</clipPath>
<clipPath id="clip2_94_154">
<rect width="48" height="48" fill="white" transform="translate(56.25)"/>
</clipPath>
<clipPath id="clip3_94_154">
<rect width="48" height="48" fill="white" transform="translate(112.5)"/>
</clipPath>
<clipPath id="clip4_94_154">
<rect width="48" height="48" fill="white" transform="translate(168.75)"/>
</clipPath>
<clipPath id="clip5_94_154">
<rect width="48" height="48" fill="white" transform="translate(225)"/>
</clipPath>
<clipPath id="clip6_94_154">
<rect width="48" height="48" fill="white" transform="translate(281.25)"/>
</clipPath>
</defs>
</svg>
