<svg viewBox="0 0 442 48" fill="none" xmlns="http://www.w3.org/2000/svg">
<g clip-path="url(#clip0_94_220)">
<g clip-path="url(#clip1_94_220)">
<path d="M36.75 0H11.25C5.0368 0 0 5.0368 0 11.25V36.75C0 42.9632 5.0368 48 11.25 48H36.75C42.9632 48 48 42.9632 48 36.75V11.25C48 5.0368 42.9632 0 36.75 0Z" fill="#FF3E00"/>
<mask id="mask0_94_220" style="mask-type:luminance" maskUnits="userSpaceOnUse" x="9" y="7" width="29" height="34">
<path d="M37.9958 7.125H9.9375V40.875H37.9958V7.125Z" fill="white"/>
</mask>
<g mask="url(#mask0_94_220)">
<path d="M36.1942 11.5868C33.0767 7.09637 26.87 5.7807 22.4083 8.61227L14.5427 13.6462C12.3976 14.9904 10.9103 17.1928 10.4813 19.6811C10.1095 21.7691 10.4241 23.9141 11.4251 25.7734C10.7387 26.8029 10.2811 27.947 10.0809 29.1484C9.62325 31.6939 10.2239 34.3252 11.7112 36.413C14.8573 40.9037 21.0352 42.2192 25.4972 39.3877L33.3626 34.3824C35.5078 33.038 36.995 30.8359 37.424 28.3474C37.7959 26.2595 37.4812 24.1144 36.4802 22.2553C37.1666 21.2255 37.6243 20.0816 37.8245 18.8803C38.3107 16.3061 37.7102 13.6748 36.1942 11.5868Z" fill="white"/>
<path d="M21.6363 36.8421C19.0908 37.5 16.4308 36.499 14.9435 34.3538C14.0282 33.0953 13.685 31.5224 13.9424 29.9777C13.9996 29.7203 14.0568 29.4915 14.114 29.2341L14.257 28.7766L14.6574 29.0625C15.6013 29.749 16.631 30.2639 17.7464 30.607L18.0324 30.6929L18.0038 30.9788C17.9752 31.3793 18.0896 31.8083 18.3185 32.1516C18.7762 32.8094 19.577 33.124 20.3491 32.9237C20.5209 32.8665 20.6924 32.8093 20.8355 32.7235L28.6722 27.7182C29.0727 27.4609 29.3302 27.0891 29.4159 26.6314C29.5017 26.1737 29.3874 25.6875 29.1299 25.3157C28.6722 24.6578 27.8714 24.3718 27.0991 24.5721C26.9275 24.6293 26.756 24.6865 26.6129 24.7724L23.6097 26.6886C23.1235 27.0032 22.5802 27.232 22.0081 27.375C19.4626 28.0328 16.8026 27.0317 15.3153 24.8867C14.4286 23.6282 14.0568 22.0551 14.3428 20.5107C14.6002 19.0234 15.5155 17.6791 16.8026 16.8782L24.668 11.8729C25.1542 11.5583 25.6977 11.3295 26.2698 11.1579C28.8153 10.5 31.4752 11.5011 32.9626 13.6462C33.8778 14.9047 34.2209 16.4778 33.9637 18.0223C33.9063 18.2797 33.8491 18.5085 33.7634 18.766L33.6204 19.2235L33.2199 18.9375C32.2762 18.2511 31.2464 17.7363 30.131 17.393L29.8449 17.3072L29.8735 17.0212C29.9022 16.6208 29.7877 16.1918 29.5589 15.8486C29.1012 15.1907 28.3004 14.9047 27.5283 15.1049C27.3565 15.1621 27.185 15.2193 27.0419 15.3051L19.2052 20.3104C18.8047 20.5679 18.5473 20.9397 18.4615 21.3974C18.3757 21.8549 18.4901 22.3412 18.7475 22.713C19.2052 23.3708 20.006 23.6567 20.7783 23.4567C20.9499 23.3995 21.1214 23.3421 21.2645 23.2564L24.2677 21.3402C24.7539 21.0255 25.2972 20.7966 25.8693 20.625C28.4148 19.9671 31.0749 20.9682 32.5621 23.1134C33.4773 24.3719 33.8206 25.945 33.5632 27.4894C33.3057 28.9767 32.3905 30.321 31.1034 31.1219L23.2379 36.1272C22.7517 36.4418 22.2084 36.6705 21.6363 36.8421Z" fill="#FF3E00"/>
</g>
</g>
<g clip-path="url(#clip2_94_220)">
<path d="M93 0H67.5C61.2868 0 56.25 5.0368 56.25 11.25V36.75C56.25 42.9632 61.2868 48 67.5 48H93C99.2132 48 104.25 42.9632 104.25 36.75V11.25C104.25 5.0368 99.2132 0 93 0Z" fill="#E14E1D"/>
<path d="M65.25 7.125L66.8643 25.2362H87.6225L86.9259 33.0043L80.2423 34.8114L73.5712 33.0069L73.1252 28.0191H67.1135L67.9732 37.6343L80.2408 41.0415L92.5239 37.6343L94.1708 19.2478H72.342L71.7939 13.1147H94.6952H94.7136L95.25 7.125H65.25Z" fill="white"/>
<path d="M80.25 7.125H65.25L66.8643 25.2362H80.25V19.2478H72.342L71.7939 13.1146H80.25V7.125Z" fill="#EBEBEB"/>
<path d="M80.2498 34.8088L80.2421 34.8114L73.571 33.0069L73.125 28.019H67.1133L67.9729 37.6342L80.2406 41.0415L80.2498 41.0389V34.8088Z" fill="#EBEBEB"/>
</g>
<g clip-path="url(#clip3_94_220)">
<path d="M149.25 0H123.75C117.537 0 112.5 5.0368 112.5 11.25V36.75C112.5 42.9632 117.537 48 123.75 48H149.25C155.463 48 160.5 42.9632 160.5 36.75V11.25C160.5 5.0368 155.463 0 149.25 0Z" fill="#0277BD"/>
<path d="M122.579 19.2471L123.116 25.2362H136.518V19.2471H122.579Z" fill="#EBEBEB"/>
<path d="M136.518 7.125H136.497H121.5L122.044 13.1142H136.518V7.125Z" fill="#EBEBEB"/>
<path d="M136.518 41.0327V34.8015L136.491 34.8084L129.821 33.0075L129.395 28.2307H126.154H123.383L124.222 37.6346L136.49 41.0403L136.518 41.0327Z" fill="#EBEBEB"/>
<path d="M143.872 25.2362L143.177 33.0036L136.497 34.8066V41.0374L148.775 37.6346L148.865 36.6227L150.273 20.8554L150.419 19.2471L151.5 7.125H136.497V13.1142H144.936L144.391 19.2471H136.497V25.2362H143.872Z" fill="white"/>
</g>
<g clip-path="url(#clip4_94_220)">
<path d="M205.5 0H180C173.787 0 168.75 5.0368 168.75 11.25V36.75C168.75 42.9632 173.787 48 180 48H205.5C211.713 48 216.75 42.9632 216.75 36.75V11.25C216.75 5.0368 211.713 0 205.5 0Z" fill="#F0DB4F"/>
<path d="M181.371 40.1123L185.044 37.8893C185.753 39.1457 186.398 40.2089 187.944 40.2089C189.426 40.2089 190.361 39.6291 190.361 37.3739V22.0367H194.872V37.4376C194.872 42.1096 192.133 44.2362 188.137 44.2362C184.529 44.2362 182.434 42.3674 181.371 40.1119" fill="#323330"/>
<path d="M197.321 39.6289L200.994 37.5024C201.961 39.0814 203.218 40.2412 205.441 40.2412C207.31 40.2412 208.502 39.3067 208.502 38.0179C208.502 36.4714 207.277 35.9235 205.215 35.0216L204.088 34.5381C200.833 33.1528 198.674 31.4128 198.674 27.7397C198.674 24.3564 201.252 21.7787 205.28 21.7787C208.147 21.7787 210.209 22.7777 211.691 25.3875L208.179 27.6429C207.406 26.2575 206.569 25.7098 205.28 25.7098C203.959 25.7098 203.121 26.5476 203.121 27.6429C203.121 28.9961 203.959 29.544 205.892 30.3819L207.019 30.8651C210.854 32.5086 213.012 34.1837 213.012 37.9534C213.012 42.0135 209.823 44.2365 205.537 44.2365C201.349 44.2365 198.642 42.2389 197.321 39.6289Z" fill="#323330"/>
</g>
<g clip-path="url(#clip5_94_220)">
<path d="M261.75 0H236.25C230.037 0 225 5.0368 225 11.25V36.75C225 42.9632 230.037 48 236.25 48H261.75C267.963 48 273 42.9632 273 36.75V11.25C273 5.0368 267.963 0 261.75 0Z" fill="#242938"/>
<path d="M249 5.625C238.646 5.625 230.25 14.0195 230.25 24.3752C230.25 32.6595 235.622 39.6878 243.073 42.1671C244.01 42.3407 244.354 41.7604 244.354 41.2652C244.354 40.818 244.336 39.3411 244.328 37.7743C239.112 38.9085 238.011 35.562 238.011 35.562C237.158 33.3947 235.929 32.8185 235.929 32.8185C234.228 31.6547 236.057 31.6787 236.057 31.6787C237.94 31.8109 238.932 33.6109 238.932 33.6109C240.604 36.4774 243.318 35.6486 244.388 35.1696C244.556 33.9576 245.042 33.1305 245.578 32.6623C241.414 32.1881 237.036 30.5803 237.036 23.3959C237.036 21.3488 237.768 19.6761 238.968 18.363C238.773 17.8908 238.131 15.9837 239.149 13.401C239.149 13.401 240.724 12.8971 244.307 15.323C245.803 14.9075 247.407 14.6992 249 14.6921C250.594 14.6992 252.199 14.9075 253.697 15.323C257.276 12.8971 258.848 13.401 258.848 13.401C259.869 15.9837 259.227 17.8908 259.032 18.363C260.234 19.6761 260.962 21.3488 260.962 23.3959C260.962 30.5976 256.576 32.1833 252.4 32.6473C253.073 33.2293 253.672 34.3703 253.672 36.1196C253.672 38.6284 253.65 40.6476 253.65 41.2652C253.65 41.7641 253.988 42.3488 254.938 42.1646C262.384 39.6825 267.75 32.6567 267.75 24.3752C267.75 14.0195 259.355 5.625 249 5.625ZM237.273 32.3349C237.231 32.4281 237.085 32.4561 236.951 32.3921C236.815 32.331 236.739 32.2039 236.783 32.1105C236.823 32.0145 236.97 31.9879 237.106 32.0522C237.242 32.1133 237.32 32.2416 237.273 32.3349ZM238.195 33.1579C238.105 33.2409 237.931 33.2023 237.812 33.0713C237.689 32.9406 237.666 32.7658 237.757 32.6816C237.849 32.5988 238.019 32.6376 238.142 32.7683C238.264 32.9006 238.288 33.0741 238.195 33.1579ZM238.828 34.2109C238.713 34.2908 238.525 34.2159 238.409 34.0491C238.294 33.8824 238.294 33.6825 238.411 33.6023C238.528 33.5222 238.713 33.5942 238.83 33.7598C238.945 33.9293 238.945 34.1293 238.828 34.2109ZM239.898 35.4304C239.795 35.5436 239.576 35.5133 239.416 35.3586C239.252 35.2074 239.206 34.9929 239.309 34.8795C239.413 34.7659 239.633 34.7979 239.795 34.9513C239.958 35.1021 240.007 35.3183 239.898 35.4304ZM241.281 35.8419C241.235 35.9889 241.024 36.0557 240.812 35.9933C240.6 35.9289 240.461 35.757 240.504 35.6085C240.548 35.4608 240.76 35.3912 240.974 35.4579C241.186 35.5219 241.325 35.6927 241.281 35.8419ZM242.855 36.0167C242.86 36.1712 242.68 36.2994 242.457 36.3023C242.233 36.3073 242.051 36.1821 242.049 36.03C242.049 35.8738 242.225 35.7469 242.449 35.7431C242.672 35.7388 242.855 35.8629 242.855 36.0167ZM244.401 35.9574C244.427 36.1082 244.273 36.2633 244.051 36.3045C243.833 36.3443 243.632 36.2511 243.604 36.1014C243.577 35.9468 243.735 35.7919 243.952 35.7518C244.174 35.7133 244.373 35.8041 244.401 35.9574Z" fill="white"/>
</g>
<g clip-path="url(#clip6_94_220)">
<path d="M318 0H292.5C286.287 0 281.25 5.0368 281.25 11.25V36.75C281.25 42.9632 286.287 48 292.5 48H318C324.213 48 329.25 42.9632 329.25 36.75V11.25C329.25 5.0368 324.213 0 318 0Z" fill="#242938"/>
<mask id="mask1_94_220" style="mask-type:luminance" maskUnits="userSpaceOnUse" x="288" y="7" width="35" height="34">
<path d="M322.125 7.125H288.375V40.875H322.125V7.125Z" fill="white"/>
</mask>
<g mask="url(#mask1_94_220)">
<path fill-rule="evenodd" clip-rule="evenodd" d="M319.463 33.4144C317.627 33.3634 316.203 33.5515 315.01 34.0536C314.666 34.1916 314.115 34.1916 314.069 34.6241C314.253 34.8056 314.275 35.1026 314.436 35.3543C314.711 35.8108 315.194 36.4258 315.63 36.745L317.098 37.7946C317.994 38.3415 319.003 38.6612 319.876 39.2087C320.381 39.5282 320.885 39.9388 321.391 40.2814C321.648 40.4638 321.804 40.761 322.125 40.8745V40.8055C321.965 40.6009 321.918 40.3045 321.758 40.0753L321.069 39.4142C320.404 38.5247 319.577 37.7485 318.682 37.1104C317.947 36.6085 316.341 35.9243 316.043 35.0807L315.997 35.0295C316.502 34.9785 317.098 34.801 317.581 34.6641C318.362 34.4595 319.073 34.5045 319.876 34.2994L320.978 33.9799V33.7753C320.565 33.3649 320.266 32.8172 319.831 32.4298C318.66 31.4261 317.374 30.445 316.043 29.6239C315.331 29.1679 314.413 28.8707 313.656 28.4837C313.379 28.3466 312.921 28.2782 312.76 28.0502C312.346 27.5492 312.117 26.887 311.819 26.2935L309.937 22.3245C309.524 21.4348 309.271 20.5451 308.767 19.7241C306.402 15.8461 303.831 13.4968 299.883 11.1925C299.034 10.7134 298.024 10.5074 296.951 10.2569L295.229 10.1648C294.861 10.0053 294.495 9.57176 294.173 9.36623C292.865 8.54513 289.49 6.7659 288.526 9.11059C287.906 10.5933 289.444 12.053 289.966 12.8061C290.357 13.3306 290.861 13.9237 291.138 14.5168C291.292 14.9043 291.343 15.3154 291.504 15.726C291.871 16.7296 292.216 17.8477 292.698 18.7834C292.955 19.2625 293.225 19.765 293.547 20.1981C293.731 20.4536 294.052 20.5631 294.121 20.9736C293.799 21.4301 293.777 22.1138 293.593 22.6849C292.766 25.2626 293.088 28.4561 294.258 30.354C294.626 30.924 295.493 32.1791 296.669 31.6997C297.702 31.2891 297.472 29.989 297.77 28.8482C297.84 28.5748 297.793 28.3922 297.931 28.2092V28.2604L298.872 30.1536C299.584 31.2713 300.824 32.4349 301.856 33.211C302.406 33.6216 302.843 34.3292 303.531 34.5797V34.5107H303.486C303.348 34.3061 303.141 34.2141 302.957 34.0545C302.544 33.6441 302.085 33.142 301.764 32.686C300.8 31.4087 299.951 29.994 299.194 28.5343C298.826 27.8273 298.504 27.0516 298.207 26.3445C298.068 26.0706 298.068 25.6594 297.839 25.5235C297.494 26.0245 296.99 26.4591 296.737 27.0746C296.3 28.0553 296.255 29.2645 296.095 30.5192C296.002 30.5421 296.043 30.5192 296.002 30.5702C295.268 30.3883 295.015 29.6346 294.74 28.9965C294.052 27.3769 293.936 24.7765 294.533 22.9058C294.694 22.4267 295.383 20.9211 295.108 20.4649C294.969 20.0314 294.511 19.7809 294.258 19.4383C293.959 19.0048 293.639 18.4577 293.432 17.9786C292.882 16.7004 292.606 15.2868 292.009 14.0091C291.733 13.416 291.251 12.7999 290.861 12.2529C290.425 11.6368 289.944 11.2032 289.599 10.4736C289.484 10.218 289.324 9.81206 289.507 9.53801C289.553 9.3555 289.645 9.28238 289.828 9.24148C290.126 8.98585 290.976 9.31 291.274 9.44599C292.123 9.78853 292.835 10.1076 293.546 10.5861C293.868 10.8142 294.213 11.2477 294.626 11.3622H295.108C295.843 11.5218 296.669 11.4134 297.356 11.6179C298.573 12.0065 299.675 12.576 300.662 13.1926C303.669 15.0858 306.149 17.7777 307.824 20.9946C308.099 21.5192 308.214 21.9983 308.467 22.5458C308.949 23.664 309.546 24.8042 310.027 25.8998C310.51 26.9719 310.969 28.0676 311.657 28.9571C312.002 29.4362 313.378 29.6867 313.998 29.9378C314.457 30.1423 315.168 30.3265 315.582 30.577C316.362 31.056 317.143 31.6035 317.877 32.1281C318.244 32.4011 319.392 32.9717 319.46 33.4268L319.463 33.4144ZM296.055 13.5914C295.738 13.5886 295.422 13.6269 295.114 13.7054V13.7565H295.16C295.343 14.1216 295.665 14.3726 295.894 14.6922L296.423 15.7873L296.468 15.7362C296.79 15.5081 296.951 15.1431 296.951 14.596C296.813 14.4365 296.79 14.2765 296.675 14.117C296.537 13.889 296.239 13.7744 296.055 13.5924V13.5914Z" fill="white"/>
</g>
</g>
<g clip-path="url(#clip7_94_220)">
<path d="M374.25 0H348.75C342.537 0 337.5 5.0368 337.5 11.25V36.75C337.5 42.9632 342.537 48 348.75 48H374.25C380.463 48 385.5 42.9632 385.5 36.75V11.25C385.5 5.0368 380.463 0 374.25 0Z" fill="#242938"/>
<path d="M359.977 5.83432C360.899 5.3064 362.101 5.30405 363.022 5.83432C367.657 8.45353 372.294 11.0687 376.929 13.6895C377.801 14.1805 378.384 15.1507 378.375 16.1551V31.9136C378.381 32.9597 377.741 33.9531 376.821 34.4329C372.201 37.0378 367.583 39.6457 362.963 42.2507C362.022 42.7888 360.797 42.7474 359.885 42.165C358.5 41.3621 357.113 40.563 355.727 39.7609C355.444 39.5921 355.125 39.4579 354.925 39.1834C355.102 38.9452 355.418 38.9156 355.675 38.8116C356.253 38.6276 356.784 38.3325 357.315 38.0462C357.449 37.9543 357.613 37.9896 357.742 38.0717C358.926 38.7508 360.101 39.4498 361.289 40.1224C361.542 40.2688 361.799 40.0744 362.016 39.9536C366.55 37.3911 371.089 34.8384 375.622 32.2751C375.79 32.1943 375.883 32.016 375.869 31.8321C375.872 26.6336 375.87 21.4344 375.871 16.236C375.89 16.0272 375.769 15.8353 375.581 15.7498C370.976 13.1569 366.374 10.5601 361.771 7.96654C361.608 7.85424 361.392 7.85396 361.229 7.96569C356.625 10.5601 352.024 13.1593 347.421 15.7521C347.233 15.8377 347.107 16.0265 347.129 16.236C347.13 21.4344 347.129 26.6336 347.129 31.8328C347.113 32.0167 347.213 32.1913 347.379 32.2704C348.608 32.967 349.838 33.6587 351.067 34.353C351.76 34.7256 352.61 34.9472 353.373 34.6616C354.046 34.4201 354.518 33.7329 354.505 33.0182C354.512 27.8501 354.502 22.6813 354.51 17.514C354.493 17.2845 354.711 17.095 354.934 17.1166C355.524 17.1126 356.115 17.1086 356.705 17.1182C356.952 17.1126 357.121 17.3596 357.091 17.5908C357.089 22.7916 357.097 27.9924 357.087 33.1931C357.089 34.5793 356.519 36.0876 355.237 36.7657C353.658 37.5838 351.705 37.4104 350.145 36.6259C348.794 35.9516 347.505 35.1559 346.178 34.4336C345.256 33.9564 344.619 32.9591 344.625 31.9138V16.1551C344.615 15.1299 345.222 14.1421 346.121 13.6583C350.74 11.0514 355.359 8.44239 359.977 5.83432Z" fill="#81CD39"/>
<path d="M364.007 16.7504C366.022 16.6206 368.179 16.6736 369.991 17.666C371.395 18.4267 372.173 20.023 372.198 21.5824C372.159 21.7926 371.939 21.9086 371.738 21.8942C371.154 21.8935 370.569 21.9023 369.985 21.8903C369.736 21.8998 369.592 21.6713 369.561 21.4521C369.393 20.7058 368.986 19.9669 368.284 19.6069C367.206 19.0673 365.956 19.0945 364.78 19.1057C363.922 19.1511 362.999 19.2255 362.272 19.7301C361.714 20.1124 361.545 20.8841 361.744 21.5057C361.932 21.952 362.447 22.096 362.868 22.2287C365.296 22.8638 367.869 22.8004 370.251 23.6361C371.237 23.9768 372.201 24.6392 372.539 25.6716C372.98 27.0553 372.787 28.7091 371.802 29.8198C371.004 30.7339 369.841 31.2315 368.682 31.5017C367.139 31.8458 365.538 31.8546 363.971 31.7018C362.498 31.5338 360.965 31.1468 359.827 30.1431C358.855 29.2986 358.38 27.9827 358.427 26.713C358.438 26.4985 358.652 26.3488 358.857 26.3665C359.446 26.3618 360.035 26.3601 360.623 26.3674C360.859 26.3505 361.033 26.5538 361.045 26.7754C361.153 27.4862 361.42 28.2325 362.041 28.6538C363.237 29.4257 364.738 29.3728 366.108 29.3944C367.243 29.3441 368.517 29.329 369.443 28.5788C369.932 28.1509 370.076 27.435 369.944 26.8193C369.801 26.2993 369.257 26.0571 368.79 25.8986C366.394 25.1406 363.792 25.4156 361.418 24.5582C360.454 24.2177 359.523 23.5738 359.152 22.5838C358.636 21.1826 358.873 19.4494 359.96 18.3762C361.021 17.3085 362.551 16.8975 364.007 16.7504Z" fill="#81CD39"/>
</g>
<g clip-path="url(#clip8_94_220)">
<path d="M430.5 0H405C398.787 0 393.75 5.0368 393.75 11.25V36.75C393.75 42.9632 398.787 48 405 48H430.5C436.713 48 441.75 42.9632 441.75 36.75V11.25C441.75 5.0368 436.713 0 430.5 0Z" fill="#242938"/>
<mask id="mask2_94_220" style="mask-type:luminance" maskUnits="userSpaceOnUse" x="399" y="5" width="38" height="38">
<path d="M436.5 5.25H399V42.75H436.5V5.25Z" fill="white"/>
</mask>
<g mask="url(#mask2_94_220)">
<path d="M408.562 32.2032H433.379V25.336L428.665 22.6324L427.852 22.2809L408.562 22.4133V32.2032Z" fill="white"/>
<path d="M424.795 31.2914C425.026 30.5005 424.938 29.7751 424.554 29.236C424.202 28.7414 423.608 28.4554 422.895 28.4226L409.365 28.2469C409.277 28.2469 409.201 28.2023 409.157 28.1367C409.112 28.0711 409.102 27.9844 409.124 27.8954C409.168 27.763 409.3 27.6646 409.443 27.6539L423.093 27.4782C424.71 27.4007 426.468 26.0929 427.082 24.4898L427.862 22.4567C427.897 22.3731 427.905 22.2812 427.886 22.1929C427.007 18.2145 423.456 15.2473 419.214 15.2473C415.3 15.2473 411.983 17.7751 410.795 21.2824C410.025 20.7106 409.037 20.4036 407.992 20.5021C406.112 20.6896 404.593 22.1942 404.42 24.0739C404.374 24.5414 404.408 25.0131 404.518 25.4695C403.04 25.5096 401.635 26.1257 400.604 27.1866C399.573 28.2475 398.998 29.6693 399 31.1485C399 31.4226 399.023 31.6992 399.055 31.9724C399.079 32.1047 399.188 32.2032 399.319 32.2032H424.289C424.361 32.2019 424.43 32.1777 424.488 32.1344C424.545 32.0909 424.587 32.0305 424.608 31.9617L424.795 31.2914Z" fill="#F38020"/>
<path d="M429.103 22.5974L428.728 22.609C428.64 22.609 428.564 22.6747 428.529 22.7615L428.002 24.5965C427.771 25.3876 427.859 26.113 428.243 26.6521C428.595 27.1465 429.189 27.4325 429.902 27.4653L432.782 27.6412C432.87 27.6412 432.946 27.6856 432.99 27.7512C433.035 27.8168 433.046 27.9153 433.023 27.9927C432.979 28.1251 432.848 28.2235 432.704 28.234L429.704 28.4099C428.078 28.4872 426.329 29.795 425.715 31.3981L425.495 31.9583C425.451 32.0684 425.528 32.1787 425.648 32.1787H435.957C436.016 32.1794 436.074 32.1605 436.122 32.1247C436.17 32.0888 436.204 32.038 436.22 31.9805C436.403 31.3306 436.497 30.6588 436.5 29.9836C436.495 28.0248 435.713 26.1477 434.327 24.7636C432.941 23.3795 431.062 22.601 429.103 22.5985" fill="#FAAE40"/>
</g>
</g>
</g>
<defs>
<clipPath id="clip0_94_220">
<rect width="441.75" height="48" fill="white"/>
</clipPath>
<clipPath id="clip1_94_220">
<rect width="48" height="48" fill="white"/>
</clipPath>
<clipPath id="clip2_94_220">
<rect width="48" height="48" fill="white" transform="translate(56.25)"/>
</clipPath>
<clipPath id="clip3_94_220">
<rect width="48" height="48" fill="white" transform="translate(112.5)"/>
</clipPath>
<clipPath id="clip4_94_220">
<rect width="48" height="48" fill="white" transform="translate(168.75)"/>
</clipPath>
<clipPath id="clip5_94_220">
<rect width="48" height="48" fill="white" transform="translate(225)"/>
</clipPath>
<clipPath id="clip6_94_220">
<rect width="48" height="48" fill="white" transform="translate(281.25)"/>
</clipPath>
<clipPath id="clip7_94_220">
<rect width="48" height="48" fill="white" transform="translate(337.5)"/>
</clipPath>
<clipPath id="clip8_94_220">
<rect width="48" height="48" fill="white" transform="translate(393.75)"/>
</clipPath>
</defs>
</svg>
