<svg viewBox="0 0 386 48" fill="none" xmlns="http://www.w3.org/2000/svg">
<g clip-path="url(#clip0_94_107)">
<g clip-path="url(#clip1_94_107)">
<path d="M36.75 0H11.25C5.0368 0 0 5.0368 0 11.25V36.75C0 42.9632 5.0368 48 11.25 48H36.75C42.9632 48 48 42.9632 48 36.75V11.25C48 5.0368 42.9632 0 36.75 0Z" fill="#242938"/>
<path d="M24 27.5534C25.932 27.5534 27.498 25.9872 27.498 24.0554C27.498 22.1236 25.932 20.5574 24 20.5574C22.0681 20.5574 20.502 22.1236 20.502 24.0554C20.502 25.9872 22.0681 27.5534 24 27.5534Z" fill="#00D8FF"/>
<path fill-rule="evenodd" clip-rule="evenodd" d="M24.0004 16.9431C28.6969 16.9431 33.0598 17.617 36.3495 18.7495C40.3131 20.1141 42.75 22.1824 42.75 24.0553C42.75 26.007 40.1674 28.2043 35.9109 29.6145C32.6931 30.6806 28.4586 31.2371 24.0004 31.2371C19.4295 31.2371 15.101 30.7147 11.8469 29.6027C7.72978 28.1955 5.25 25.9699 5.25 24.0553C5.25 22.1976 7.5768 20.1452 11.4847 18.7828C14.7866 17.6316 19.2572 16.9431 23.9996 16.9431H24.0004Z" stroke="#00D8FF" stroke-width="1.67081"/>
<path fill-rule="evenodd" clip-rule="evenodd" d="M17.8091 20.5196C20.1554 16.4513 22.9186 13.0084 25.5432 10.7245C28.7052 7.97261 31.7146 6.8949 33.3369 7.83043C35.0276 8.80543 35.6409 12.1406 34.7362 16.5321C34.0528 19.8523 32.4189 23.7984 30.1916 27.6606C27.908 31.6202 25.2933 35.1088 22.7045 37.3716C19.4287 40.2351 16.2617 41.2714 14.6032 40.3149C12.9939 39.3876 12.3785 36.3461 13.1505 32.2802C13.8028 28.8446 15.4398 24.6279 17.8083 20.5196H17.8091Z" stroke="#00D8FF" stroke-width="1.67081"/>
<path fill-rule="evenodd" clip-rule="evenodd" d="M17.8149 27.6709C15.462 23.607 13.86 19.4929 13.1913 16.0784C12.3864 11.9645 12.9555 8.81916 14.5764 7.88091C16.2654 6.90306 19.4611 8.03738 22.814 11.0144C25.349 13.2652 27.952 16.651 30.1857 20.5093C32.4758 24.4652 34.1922 28.473 34.8599 31.8458C35.7048 36.114 35.021 39.3752 33.364 40.3343C31.7564 41.265 28.8143 40.2797 25.6773 37.5801C23.0268 35.2993 20.191 31.7753 17.8149 27.6709Z" stroke="#00D8FF" stroke-width="1.67081"/>
</g>
<g clip-path="url(#clip2_94_107)">
<path d="M93 0H67.5C61.2868 0 56.25 5.0368 56.25 11.25V36.75C56.25 42.9632 61.2868 48 67.5 48H93C99.2132 48 104.25 42.9632 104.25 36.75V11.25C104.25 5.0368 99.2132 0 93 0Z" fill="#0277BD"/>
<path d="M66.3291 19.2471L66.8659 25.2362H80.2685V19.2471H66.3291Z" fill="#EBEBEB"/>
<path d="M80.2678 7.125H80.2472H65.25L65.7944 13.1142H80.2678V7.125Z" fill="#EBEBEB"/>
<path d="M80.2677 41.0327V34.8015L80.2414 34.8084L73.5713 33.0075L73.1449 28.2307H69.9038H67.1328L67.9719 37.6346L80.2401 41.0403L80.2677 41.0327Z" fill="#EBEBEB"/>
<path d="M87.622 25.2362L86.9268 33.0036L80.2471 34.8066V41.0374L92.5251 37.6346L92.6151 36.6227L94.0225 20.8554L94.1686 19.2471L95.2499 7.125H80.2471V13.1142H88.6863L88.1414 19.2471H80.2471V25.2362H87.622Z" fill="white"/>
</g>
<g clip-path="url(#clip3_94_107)">
<path d="M149.25 0H123.75C117.537 0 112.5 5.0368 112.5 11.25V36.75C112.5 42.9632 117.537 48 123.75 48H149.25C155.463 48 160.5 42.9632 160.5 36.75V11.25C160.5 5.0368 155.463 0 149.25 0Z" fill="#F0DB4F"/>
<path d="M125.121 40.1123L128.794 37.8893C129.503 39.1457 130.148 40.2089 131.694 40.2089C133.176 40.2089 134.111 39.6291 134.111 37.3739V22.0367H138.622V37.4376C138.622 42.1096 135.883 44.2362 131.887 44.2362C128.279 44.2362 126.184 42.3674 125.121 40.1119" fill="#323330"/>
<path d="M141.071 39.6289L144.744 37.5024C145.711 39.0814 146.968 40.2412 149.191 40.2412C151.06 40.2412 152.252 39.3067 152.252 38.0179C152.252 36.4714 151.027 35.9235 148.965 35.0216L147.838 34.5381C144.583 33.1528 142.424 31.4128 142.424 27.7397C142.424 24.3564 145.002 21.7787 149.03 21.7787C151.897 21.7787 153.959 22.7777 155.441 25.3875L151.929 27.6429C151.156 26.2575 150.319 25.7098 149.03 25.7098C147.709 25.7098 146.871 26.5476 146.871 27.6429C146.871 28.9961 147.709 29.544 149.642 30.3819L150.769 30.8651C154.604 32.5086 156.762 34.1837 156.762 37.9534C156.762 42.0135 153.573 44.2365 149.287 44.2365C145.099 44.2365 142.392 42.2389 141.071 39.6289Z" fill="#323330"/>
</g>
<g clip-path="url(#clip4_94_107)">
<path d="M205.5 0H180C173.787 0 168.75 5.0368 168.75 11.25V36.75C168.75 42.9632 173.787 48 180 48H205.5C211.713 48 216.75 42.9632 216.75 36.75V11.25C216.75 5.0368 211.713 0 205.5 0Z" fill="#242938"/>
<mask id="mask0_94_107" style="mask-type:luminance" maskUnits="userSpaceOnUse" x="175" y="7" width="35" height="34">
<path d="M209.625 7.125H175.875V40.875H209.625V7.125Z" fill="white"/>
</mask>
<g mask="url(#mask0_94_107)">
<path fill-rule="evenodd" clip-rule="evenodd" d="M206.963 33.4144C205.127 33.3634 203.703 33.5515 202.51 34.0536C202.166 34.1916 201.615 34.1916 201.569 34.6241C201.753 34.8056 201.775 35.1026 201.936 35.3543C202.211 35.8108 202.694 36.4258 203.13 36.745L204.598 37.7946C205.494 38.3415 206.503 38.6612 207.376 39.2087C207.881 39.5282 208.385 39.9388 208.891 40.2814C209.148 40.4638 209.304 40.761 209.625 40.8745V40.8055C209.465 40.6009 209.418 40.3045 209.258 40.0753L208.569 39.4142C207.904 38.5247 207.077 37.7485 206.182 37.1104C205.447 36.6085 203.841 35.9243 203.543 35.0807L203.497 35.0295C204.002 34.9785 204.598 34.801 205.081 34.6641C205.862 34.4595 206.573 34.5045 207.376 34.2994L208.478 33.9799V33.7753C208.065 33.3649 207.766 32.8172 207.331 32.4298C206.16 31.4261 204.874 30.445 203.543 29.6239C202.831 29.1679 201.913 28.8707 201.156 28.4837C200.879 28.3466 200.421 28.2782 200.26 28.0502C199.846 27.5492 199.617 26.887 199.319 26.2935L197.437 22.3245C197.024 21.4348 196.771 20.5451 196.267 19.7241C193.902 15.8461 191.331 13.4968 187.383 11.1925C186.534 10.7134 185.524 10.5074 184.451 10.2569L182.729 10.1648C182.361 10.0053 181.995 9.57176 181.673 9.36623C180.365 8.54513 176.99 6.7659 176.026 9.11059C175.406 10.5933 176.944 12.053 177.466 12.8061C177.857 13.3306 178.361 13.9237 178.638 14.5168C178.792 14.9043 178.843 15.3154 179.004 15.726C179.371 16.7296 179.716 17.8477 180.198 18.7834C180.455 19.2625 180.725 19.765 181.047 20.1981C181.231 20.4536 181.552 20.5631 181.621 20.9736C181.299 21.4301 181.277 22.1138 181.093 22.6849C180.266 25.2626 180.588 28.4561 181.758 30.354C182.126 30.924 182.993 32.1791 184.169 31.6997C185.202 31.2891 184.972 29.989 185.27 28.8482C185.34 28.5748 185.293 28.3922 185.431 28.2092V28.2604L186.372 30.1536C187.084 31.2713 188.324 32.4349 189.356 33.211C189.906 33.6216 190.343 34.3292 191.031 34.5797V34.5107H190.986C190.848 34.3061 190.641 34.2141 190.457 34.0545C190.044 33.6441 189.585 33.142 189.264 32.686C188.3 31.4087 187.451 29.994 186.694 28.5343C186.326 27.8273 186.004 27.0516 185.707 26.3445C185.568 26.0706 185.568 25.6594 185.339 25.5235C184.994 26.0245 184.49 26.4591 184.237 27.0746C183.8 28.0553 183.755 29.2645 183.595 30.5192C183.502 30.5421 183.543 30.5192 183.502 30.5702C182.768 30.3883 182.515 29.6346 182.24 28.9965C181.552 27.3769 181.436 24.7765 182.033 22.9058C182.194 22.4267 182.883 20.9211 182.608 20.4649C182.469 20.0314 182.011 19.7809 181.758 19.4383C181.459 19.0048 181.139 18.4577 180.932 17.9786C180.382 16.7004 180.106 15.2868 179.509 14.0091C179.233 13.416 178.751 12.7999 178.361 12.2529C177.925 11.6368 177.444 11.2032 177.099 10.4736C176.984 10.218 176.824 9.81206 177.007 9.53801C177.053 9.3555 177.145 9.28238 177.328 9.24148C177.626 8.98585 178.476 9.31 178.774 9.44599C179.623 9.78853 180.335 10.1076 181.046 10.5861C181.368 10.8142 181.713 11.2477 182.126 11.3622H182.608C183.343 11.5218 184.169 11.4134 184.856 11.6179C186.073 12.0065 187.175 12.576 188.162 13.1926C191.169 15.0858 193.649 17.7777 195.324 20.9946C195.599 21.5192 195.714 21.9983 195.967 22.5458C196.449 23.664 197.046 24.8042 197.527 25.8998C198.01 26.9719 198.469 28.0676 199.157 28.9571C199.502 29.4362 200.878 29.6867 201.498 29.9378C201.957 30.1423 202.668 30.3265 203.082 30.577C203.862 31.056 204.643 31.6035 205.377 32.1281C205.744 32.4011 206.892 32.9717 206.96 33.4268L206.963 33.4144ZM183.555 13.5914C183.238 13.5886 182.922 13.6269 182.614 13.7054V13.7565H182.66C182.843 14.1216 183.165 14.3726 183.394 14.6922L183.923 15.7873L183.968 15.7362C184.29 15.5081 184.451 15.1431 184.451 14.596C184.313 14.4365 184.29 14.2765 184.175 14.117C184.037 13.889 183.739 13.7744 183.555 13.5924V13.5914Z" fill="white"/>
</g>
</g>
<g clip-path="url(#clip5_94_107)">
<path d="M261.75 0H236.25C230.037 0 225 5.0368 225 11.25V36.75C225 42.9632 230.037 48 236.25 48H261.75C267.963 48 273 42.9632 273 36.75V11.25C273 5.0368 267.963 0 261.75 0Z" fill="#242938"/>
<path d="M249 5.625C238.646 5.625 230.25 14.0195 230.25 24.3752C230.25 32.6595 235.622 39.6878 243.073 42.1671C244.01 42.3407 244.354 41.7604 244.354 41.2652C244.354 40.818 244.336 39.3411 244.328 37.7743C239.112 38.9085 238.011 35.562 238.011 35.562C237.158 33.3947 235.929 32.8185 235.929 32.8185C234.228 31.6547 236.057 31.6787 236.057 31.6787C237.94 31.8109 238.932 33.6109 238.932 33.6109C240.604 36.4774 243.318 35.6486 244.388 35.1696C244.556 33.9576 245.042 33.1305 245.578 32.6623C241.414 32.1881 237.036 30.5803 237.036 23.3959C237.036 21.3488 237.768 19.6761 238.968 18.363C238.773 17.8908 238.131 15.9837 239.149 13.401C239.149 13.401 240.724 12.8971 244.307 15.323C245.803 14.9075 247.407 14.6992 249 14.6921C250.594 14.6992 252.199 14.9075 253.697 15.323C257.276 12.8971 258.848 13.401 258.848 13.401C259.869 15.9837 259.227 17.8908 259.032 18.363C260.234 19.6761 260.962 21.3488 260.962 23.3959C260.962 30.5976 256.576 32.1833 252.4 32.6473C253.073 33.2293 253.672 34.3703 253.672 36.1196C253.672 38.6284 253.65 40.6476 253.65 41.2652C253.65 41.7641 253.988 42.3488 254.938 42.1646C262.384 39.6825 267.75 32.6567 267.75 24.3752C267.75 14.0195 259.355 5.625 249 5.625ZM237.273 32.3349C237.231 32.4281 237.085 32.4561 236.951 32.3921C236.815 32.331 236.739 32.2039 236.783 32.1105C236.823 32.0145 236.97 31.9879 237.106 32.0522C237.242 32.1133 237.32 32.2416 237.273 32.3349ZM238.195 33.1579C238.105 33.2409 237.931 33.2023 237.812 33.0713C237.689 32.9406 237.666 32.7658 237.757 32.6816C237.849 32.5988 238.019 32.6376 238.142 32.7683C238.264 32.9006 238.288 33.0741 238.195 33.1579ZM238.828 34.2109C238.713 34.2908 238.525 34.2159 238.409 34.0491C238.294 33.8824 238.294 33.6825 238.411 33.6023C238.528 33.5222 238.713 33.5942 238.83 33.7598C238.945 33.9293 238.945 34.1293 238.828 34.2109ZM239.898 35.4304C239.795 35.5436 239.576 35.5133 239.416 35.3586C239.252 35.2074 239.206 34.9929 239.309 34.8795C239.413 34.7659 239.633 34.7979 239.795 34.9513C239.958 35.1021 240.007 35.3183 239.898 35.4304ZM241.281 35.8419C241.235 35.9889 241.024 36.0557 240.812 35.9933C240.6 35.9289 240.461 35.757 240.504 35.6085C240.548 35.4608 240.76 35.3912 240.974 35.4579C241.186 35.5219 241.325 35.6927 241.281 35.8419ZM242.855 36.0167C242.86 36.1712 242.68 36.2994 242.457 36.3023C242.233 36.3073 242.051 36.1821 242.049 36.03C242.049 35.8738 242.225 35.7469 242.449 35.7431C242.672 35.7388 242.855 35.8629 242.855 36.0167ZM244.401 35.9574C244.427 36.1082 244.273 36.2633 244.051 36.3045C243.833 36.3443 243.632 36.2511 243.604 36.1014C243.577 35.9468 243.735 35.7919 243.952 35.7518C244.174 35.7133 244.373 35.8041 244.401 35.9574Z" fill="white"/>
</g>
<g clip-path="url(#clip6_94_107)">
<path d="M318 0H292.5C286.287 0 281.25 5.0368 281.25 11.25V36.75C281.25 42.9632 286.287 48 292.5 48H318C324.213 48 329.25 42.9632 329.25 36.75V11.25C329.25 5.0368 324.213 0 318 0Z" fill="#242938"/>
<mask id="mask1_94_107" style="mask-type:luminance" maskUnits="userSpaceOnUse" x="286" y="5" width="38" height="38">
<path d="M324 5.25H286.5V42.75H324V5.25Z" fill="white"/>
</mask>
<g mask="url(#mask1_94_107)">
<path d="M296.062 32.2032H320.879V25.336L316.165 22.6324L315.352 22.2809L296.062 22.4133V32.2032Z" fill="white"/>
<path d="M312.295 31.2914C312.526 30.5005 312.438 29.7751 312.054 29.236C311.702 28.7414 311.108 28.4554 310.395 28.4226L296.865 28.2469C296.777 28.2469 296.701 28.2023 296.657 28.1367C296.612 28.0711 296.602 27.9844 296.624 27.8954C296.668 27.763 296.8 27.6646 296.943 27.6539L310.593 27.4782C312.21 27.4007 313.968 26.0929 314.582 24.4898L315.362 22.4567C315.397 22.3731 315.405 22.2812 315.386 22.1929C314.507 18.2145 310.956 15.2473 306.714 15.2473C302.8 15.2473 299.483 17.7751 298.295 21.2824C297.525 20.7106 296.537 20.4036 295.492 20.5021C293.612 20.6896 292.093 22.1942 291.92 24.0739C291.874 24.5414 291.908 25.0131 292.018 25.4695C290.54 25.5096 289.135 26.1257 288.104 27.1866C287.073 28.2475 286.498 29.6693 286.5 31.1485C286.5 31.4226 286.523 31.6992 286.555 31.9724C286.579 32.1047 286.688 32.2032 286.819 32.2032H311.789C311.861 32.2019 311.93 32.1777 311.988 32.1344C312.045 32.0909 312.087 32.0305 312.108 31.9617L312.295 31.2914Z" fill="#F38020"/>
<path d="M316.603 22.5974L316.228 22.609C316.14 22.609 316.064 22.6747 316.029 22.7615L315.502 24.5965C315.271 25.3876 315.359 26.113 315.743 26.6521C316.095 27.1465 316.689 27.4325 317.402 27.4653L320.282 27.6412C320.37 27.6412 320.446 27.6856 320.49 27.7512C320.535 27.8168 320.546 27.9153 320.523 27.9927C320.479 28.1251 320.348 28.2235 320.204 28.234L317.204 28.4099C315.578 28.4872 313.829 29.795 313.215 31.3981L312.995 31.9583C312.951 32.0684 313.028 32.1787 313.148 32.1787H323.457C323.516 32.1794 323.574 32.1605 323.622 32.1247C323.67 32.0888 323.704 32.038 323.72 31.9805C323.903 31.3306 323.997 30.6588 324 29.9836C323.995 28.0248 323.213 26.1477 321.827 24.7636C320.441 23.3795 318.562 22.601 316.603 22.5985" fill="#FAAE40"/>
</g>
</g>
<g clip-path="url(#clip7_94_107)">
<path d="M374.25 0H348.75C342.537 0 337.5 5.0368 337.5 11.25V36.75C337.5 42.9632 342.537 48 348.75 48H374.25C380.463 48 385.5 42.9632 385.5 36.75V11.25C385.5 5.0368 380.463 0 374.25 0Z" fill="#242938"/>
<path d="M359.977 5.83432C360.899 5.3064 362.101 5.30405 363.022 5.83432C367.657 8.45353 372.294 11.0687 376.929 13.6895C377.801 14.1805 378.384 15.1507 378.375 16.1551V31.9136C378.381 32.9597 377.741 33.9531 376.821 34.4329C372.201 37.0378 367.583 39.6457 362.963 42.2507C362.022 42.7888 360.797 42.7474 359.885 42.165C358.5 41.3621 357.113 40.563 355.727 39.7609C355.444 39.5921 355.125 39.4579 354.925 39.1834C355.102 38.9452 355.418 38.9156 355.675 38.8116C356.253 38.6276 356.784 38.3325 357.315 38.0462C357.449 37.9543 357.613 37.9896 357.742 38.0717C358.926 38.7508 360.101 39.4498 361.289 40.1224C361.542 40.2688 361.799 40.0744 362.016 39.9536C366.55 37.3911 371.089 34.8384 375.622 32.2751C375.79 32.1943 375.883 32.016 375.869 31.8321C375.872 26.6336 375.87 21.4344 375.871 16.236C375.89 16.0272 375.769 15.8353 375.581 15.7498C370.976 13.1569 366.374 10.5601 361.771 7.96654C361.608 7.85424 361.392 7.85396 361.229 7.96569C356.625 10.5601 352.024 13.1593 347.421 15.7521C347.233 15.8377 347.107 16.0265 347.129 16.236C347.13 21.4344 347.129 26.6336 347.129 31.8328C347.113 32.0167 347.213 32.1913 347.379 32.2704C348.608 32.967 349.838 33.6587 351.067 34.353C351.76 34.7256 352.61 34.9472 353.373 34.6616C354.046 34.4201 354.518 33.7329 354.505 33.0182C354.512 27.8501 354.502 22.6813 354.51 17.514C354.493 17.2845 354.711 17.095 354.934 17.1166C355.524 17.1126 356.115 17.1086 356.705 17.1182C356.952 17.1126 357.121 17.3596 357.091 17.5908C357.089 22.7916 357.097 27.9924 357.087 33.1931C357.089 34.5793 356.519 36.0876 355.237 36.7657C353.658 37.5838 351.705 37.4104 350.145 36.6259C348.794 35.9516 347.505 35.1559 346.178 34.4336C345.256 33.9564 344.619 32.9591 344.625 31.9138V16.1551C344.615 15.1299 345.222 14.1421 346.121 13.6583C350.74 11.0514 355.359 8.44239 359.977 5.83432Z" fill="#81CD39"/>
<path d="M364.007 16.7504C366.022 16.6206 368.179 16.6736 369.991 17.666C371.395 18.4267 372.173 20.023 372.198 21.5824C372.159 21.7926 371.939 21.9086 371.738 21.8942C371.154 21.8935 370.569 21.9023 369.985 21.8903C369.736 21.8998 369.592 21.6713 369.561 21.4521C369.393 20.7058 368.986 19.9669 368.284 19.6069C367.206 19.0673 365.956 19.0945 364.78 19.1057C363.922 19.1511 362.999 19.2255 362.272 19.7301C361.714 20.1124 361.545 20.8841 361.744 21.5057C361.932 21.952 362.447 22.096 362.868 22.2287C365.296 22.8638 367.869 22.8004 370.251 23.6361C371.237 23.9768 372.201 24.6392 372.539 25.6716C372.98 27.0553 372.787 28.7091 371.802 29.8198C371.004 30.7339 369.841 31.2315 368.682 31.5017C367.139 31.8458 365.538 31.8546 363.971 31.7018C362.498 31.5338 360.965 31.1468 359.827 30.1431C358.855 29.2986 358.38 27.9827 358.427 26.713C358.438 26.4985 358.652 26.3488 358.857 26.3665C359.446 26.3618 360.035 26.3601 360.623 26.3674C360.859 26.3505 361.033 26.5538 361.045 26.7754C361.153 27.4862 361.42 28.2325 362.041 28.6538C363.237 29.4257 364.738 29.3728 366.108 29.3944C367.243 29.3441 368.517 29.329 369.443 28.5788C369.932 28.1509 370.076 27.435 369.944 26.8193C369.801 26.2993 369.257 26.0571 368.79 25.8986C366.394 25.1406 363.792 25.4156 361.418 24.5582C360.454 24.2177 359.523 23.5738 359.152 22.5838C358.636 21.1826 358.873 19.4494 359.96 18.3762C361.021 17.3085 362.551 16.8975 364.007 16.7504Z" fill="#81CD39"/>
</g>
</g>
<defs>
<clipPath id="clip0_94_107">
<rect width="385.5" height="48" fill="white"/>
</clipPath>
<clipPath id="clip1_94_107">
<rect width="48" height="48" fill="white"/>
</clipPath>
<clipPath id="clip2_94_107">
<rect width="48" height="48" fill="white" transform="translate(56.25)"/>
</clipPath>
<clipPath id="clip3_94_107">
<rect width="48" height="48" fill="white" transform="translate(112.5)"/>
</clipPath>
<clipPath id="clip4_94_107">
<rect width="48" height="48" fill="white" transform="translate(168.75)"/>
</clipPath>
<clipPath id="clip5_94_107">
<rect width="48" height="48" fill="white" transform="translate(225)"/>
</clipPath>
<clipPath id="clip6_94_107">
<rect width="48" height="48" fill="white" transform="translate(281.25)"/>
</clipPath>
<clipPath id="clip7_94_107">
<rect width="48" height="48" fill="white" transform="translate(337.5)"/>
</clipPath>
</defs>
</svg>
