<svg viewBox="0 0 330 48" fill="none" xmlns="http://www.w3.org/2000/svg">
<g clip-path="url(#clip0_93_19)">
<g clip-path="url(#clip1_93_19)">
<path d="M36.75 0H11.25C5.0368 0 0 5.0368 0 11.25V36.75C0 42.9632 5.0368 48 11.25 48H36.75C42.9632 48 48 42.9632 48 36.75V11.25C48 5.0368 42.9632 0 36.75 0Z" fill="#242938"/>
<path d="M24 27.5534C25.932 27.5534 27.498 25.9872 27.498 24.0554C27.498 22.1236 25.932 20.5574 24 20.5574C22.0681 20.5574 20.502 22.1236 20.502 24.0554C20.502 25.9872 22.0681 27.5534 24 27.5534Z" fill="#00D8FF"/>
<path fill-rule="evenodd" clip-rule="evenodd" d="M24.0004 16.9431C28.6969 16.9431 33.0598 17.617 36.3495 18.7495C40.3131 20.1141 42.75 22.1824 42.75 24.0553C42.75 26.007 40.1674 28.2043 35.9109 29.6145C32.6931 30.6806 28.4586 31.2371 24.0004 31.2371C19.4295 31.2371 15.101 30.7147 11.8469 29.6027C7.72978 28.1955 5.25 25.9699 5.25 24.0553C5.25 22.1976 7.5768 20.1452 11.4847 18.7828C14.7866 17.6316 19.2572 16.9431 23.9996 16.9431H24.0004Z" stroke="#00D8FF" stroke-width="1.67081"/>
<path fill-rule="evenodd" clip-rule="evenodd" d="M17.8091 20.5196C20.1554 16.4513 22.9186 13.0084 25.5432 10.7245C28.7052 7.97261 31.7146 6.8949 33.3369 7.83043C35.0276 8.80543 35.6409 12.1406 34.7362 16.5321C34.0528 19.8523 32.4189 23.7984 30.1916 27.6606C27.908 31.6202 25.2933 35.1088 22.7045 37.3716C19.4287 40.2351 16.2617 41.2714 14.6032 40.3149C12.9939 39.3876 12.3785 36.3461 13.1505 32.2802C13.8028 28.8446 15.4398 24.6279 17.8083 20.5196H17.8091Z" stroke="#00D8FF" stroke-width="1.67081"/>
<path fill-rule="evenodd" clip-rule="evenodd" d="M17.8149 27.6709C15.462 23.607 13.86 19.4929 13.1913 16.0784C12.3864 11.9645 12.9555 8.81916 14.5764 7.88091C16.2654 6.90306 19.4611 8.03738 22.814 11.0144C25.349 13.2652 27.952 16.651 30.1857 20.5093C32.4758 24.4652 34.1922 28.473 34.8599 31.8458C35.7048 36.114 35.021 39.3752 33.364 40.3343C31.7564 41.265 28.8143 40.2797 25.6773 37.5801C23.0268 35.2993 20.191 31.7753 17.8149 27.6709Z" stroke="#00D8FF" stroke-width="1.67081"/>
</g>
<g clip-path="url(#clip2_93_19)">
<path d="M93 0H67.5C61.2868 0 56.25 5.0368 56.25 11.25V36.75C56.25 42.9632 61.2868 48 67.5 48H93C99.2132 48 104.25 42.9632 104.25 36.75V11.25C104.25 5.0368 99.2132 0 93 0Z" fill="#E14E1D"/>
<path d="M65.25 7.125L66.8643 25.2362H87.6225L86.9259 33.0043L80.2423 34.8114L73.5712 33.0069L73.1252 28.0191H67.1135L67.9732 37.6343L80.2408 41.0415L92.5239 37.6343L94.1708 19.2478H72.342L71.7939 13.1147H94.6952H94.7136L95.25 7.125H65.25Z" fill="white"/>
<path d="M80.25 7.125H65.25L66.8643 25.2362H80.25V19.2478H72.342L71.7939 13.1146H80.25V7.125Z" fill="#EBEBEB"/>
<path d="M80.2498 34.8088L80.2421 34.8114L73.571 33.0069L73.125 28.019H67.1133L67.9729 37.6342L80.2406 41.0415L80.2498 41.0389V34.8088Z" fill="#EBEBEB"/>
</g>
<g clip-path="url(#clip3_93_19)">
<path d="M149.25 0H123.75C117.537 0 112.5 5.0368 112.5 11.25V36.75C112.5 42.9632 117.537 48 123.75 48H149.25C155.463 48 160.5 42.9632 160.5 36.75V11.25C160.5 5.0368 155.463 0 149.25 0Z" fill="#0277BD"/>
<path d="M122.579 19.2471L123.116 25.2362H136.518V19.2471H122.579Z" fill="#EBEBEB"/>
<path d="M136.518 7.125H136.497H121.5L122.044 13.1142H136.518V7.125Z" fill="#EBEBEB"/>
<path d="M136.518 41.0327V34.8015L136.491 34.8084L129.821 33.0075L129.395 28.2307H126.154H123.383L124.222 37.6346L136.49 41.0403L136.518 41.0327Z" fill="#EBEBEB"/>
<path d="M143.872 25.2362L143.177 33.0036L136.497 34.8066V41.0374L148.775 37.6346L148.865 36.6227L150.273 20.8554L150.419 19.2471L151.5 7.125H136.497V13.1142H144.936L144.391 19.2471H136.497V25.2362H143.872Z" fill="white"/>
</g>
<g clip-path="url(#clip4_93_19)">
<path d="M205.5 0H180C173.787 0 168.75 5.0368 168.75 11.25V36.75C168.75 42.9632 173.787 48 180 48H205.5C211.713 48 216.75 42.9632 216.75 36.75V11.25C216.75 5.0368 211.713 0 205.5 0Z" fill="#F0DB4F"/>
<path d="M181.371 40.1123L185.044 37.8893C185.753 39.1457 186.398 40.2089 187.944 40.2089C189.426 40.2089 190.361 39.6291 190.361 37.3739V22.0367H194.872V37.4376C194.872 42.1096 192.133 44.2362 188.137 44.2362C184.529 44.2362 182.434 42.3674 181.371 40.1119" fill="#323330"/>
<path d="M197.321 39.6289L200.994 37.5024C201.961 39.0814 203.218 40.2412 205.441 40.2412C207.31 40.2412 208.502 39.3067 208.502 38.0179C208.502 36.4714 207.277 35.9235 205.215 35.0216L204.088 34.5381C200.833 33.1528 198.674 31.4128 198.674 27.7397C198.674 24.3564 201.252 21.7787 205.28 21.7787C208.147 21.7787 210.209 22.7777 211.691 25.3875L208.179 27.6429C207.406 26.2575 206.569 25.7098 205.28 25.7098C203.959 25.7098 203.121 26.5476 203.121 27.6429C203.121 28.9961 203.959 29.544 205.892 30.3819L207.019 30.8651C210.854 32.5086 213.012 34.1837 213.012 37.9534C213.012 42.0135 209.823 44.2365 205.537 44.2365C201.349 44.2365 198.642 42.2389 197.321 39.6289Z" fill="#323330"/>
</g>
<g clip-path="url(#clip5_93_19)">
<path d="M261.75 0H236.25C230.037 0 225 5.0368 225 11.25V36.75C225 42.9632 230.037 48 236.25 48H261.75C267.963 48 273 42.9632 273 36.75V11.25C273 5.0368 267.963 0 261.75 0Z" fill="#242938"/>
<path d="M249 5.625C238.646 5.625 230.25 14.0195 230.25 24.3752C230.25 32.6595 235.622 39.6878 243.073 42.1671C244.01 42.3407 244.354 41.7604 244.354 41.2652C244.354 40.818 244.336 39.3411 244.328 37.7743C239.112 38.9085 238.011 35.562 238.011 35.562C237.158 33.3947 235.929 32.8185 235.929 32.8185C234.228 31.6547 236.057 31.6787 236.057 31.6787C237.94 31.8109 238.932 33.6109 238.932 33.6109C240.604 36.4774 243.318 35.6486 244.388 35.1696C244.556 33.9576 245.042 33.1305 245.578 32.6623C241.414 32.1881 237.036 30.5803 237.036 23.3959C237.036 21.3488 237.768 19.6761 238.968 18.363C238.773 17.8908 238.131 15.9837 239.149 13.401C239.149 13.401 240.724 12.8971 244.307 15.323C245.803 14.9075 247.407 14.6992 249 14.6921C250.594 14.6992 252.199 14.9075 253.697 15.323C257.276 12.8971 258.848 13.401 258.848 13.401C259.869 15.9837 259.227 17.8908 259.032 18.363C260.234 19.6761 260.962 21.3488 260.962 23.3959C260.962 30.5976 256.576 32.1833 252.4 32.6473C253.073 33.2293 253.672 34.3703 253.672 36.1196C253.672 38.6284 253.65 40.6476 253.65 41.2652C253.65 41.7641 253.988 42.3488 254.938 42.1646C262.384 39.6825 267.75 32.6567 267.75 24.3752C267.75 14.0195 259.355 5.625 249 5.625ZM237.273 32.3349C237.231 32.4281 237.085 32.4561 236.951 32.3921C236.815 32.331 236.739 32.2039 236.783 32.1105C236.823 32.0145 236.97 31.9879 237.106 32.0522C237.242 32.1133 237.32 32.2416 237.273 32.3349ZM238.195 33.1579C238.105 33.2409 237.931 33.2023 237.812 33.0713C237.689 32.9406 237.666 32.7658 237.757 32.6816C237.849 32.5988 238.019 32.6376 238.142 32.7683C238.264 32.9006 238.288 33.0741 238.195 33.1579ZM238.828 34.2109C238.713 34.2908 238.525 34.2159 238.409 34.0491C238.294 33.8824 238.294 33.6825 238.411 33.6023C238.528 33.5222 238.713 33.5942 238.83 33.7598C238.945 33.9293 238.945 34.1293 238.828 34.2109ZM239.898 35.4304C239.795 35.5436 239.576 35.5133 239.416 35.3586C239.252 35.2074 239.206 34.9929 239.309 34.8795C239.413 34.7659 239.633 34.7979 239.795 34.9513C239.958 35.1021 240.007 35.3183 239.898 35.4304ZM241.281 35.8419C241.235 35.9889 241.024 36.0557 240.812 35.9933C240.6 35.9289 240.461 35.757 240.504 35.6085C240.548 35.4608 240.76 35.3912 240.974 35.4579C241.186 35.5219 241.325 35.6927 241.281 35.8419ZM242.855 36.0167C242.86 36.1712 242.68 36.2994 242.457 36.3023C242.233 36.3073 242.051 36.1821 242.049 36.03C242.049 35.8738 242.225 35.7469 242.449 35.7431C242.672 35.7388 242.855 35.8629 242.855 36.0167ZM244.401 35.9574C244.427 36.1082 244.273 36.2633 244.051 36.3045C243.833 36.3443 243.632 36.2511 243.604 36.1014C243.577 35.9468 243.735 35.7919 243.952 35.7518C244.174 35.7133 244.373 35.8041 244.401 35.9574Z" fill="white"/>
</g>
<g clip-path="url(#clip6_93_19)">
<path d="M318 0H292.5C286.287 0 281.25 5.0368 281.25 11.25V36.75C281.25 42.9632 286.287 48 292.5 48H318C324.213 48 329.25 42.9632 329.25 36.75V11.25C329.25 5.0368 324.213 0 318 0Z" fill="#242938"/>
<mask id="mask0_93_19" style="mask-type:luminance" maskUnits="userSpaceOnUse" x="286" y="5" width="38" height="38">
<path d="M324 5.25H286.5V42.75H324V5.25Z" fill="white"/>
</mask>
<g mask="url(#mask0_93_19)">
<path d="M296.062 32.2032H320.879V25.336L316.165 22.6324L315.352 22.2809L296.062 22.4133V32.2032Z" fill="white"/>
<path d="M312.295 31.2914C312.526 30.5005 312.438 29.7751 312.054 29.236C311.702 28.7414 311.108 28.4554 310.395 28.4226L296.865 28.2469C296.777 28.2469 296.701 28.2023 296.657 28.1367C296.612 28.0711 296.602 27.9844 296.624 27.8954C296.668 27.763 296.8 27.6646 296.943 27.6539L310.593 27.4782C312.21 27.4007 313.968 26.0929 314.582 24.4898L315.362 22.4567C315.397 22.3731 315.405 22.2812 315.386 22.1929C314.507 18.2145 310.956 15.2473 306.714 15.2473C302.8 15.2473 299.483 17.7751 298.295 21.2824C297.525 20.7106 296.537 20.4036 295.492 20.5021C293.612 20.6896 292.093 22.1942 291.92 24.0739C291.874 24.5414 291.908 25.0131 292.018 25.4695C290.54 25.5096 289.135 26.1257 288.104 27.1866C287.073 28.2475 286.498 29.6693 286.5 31.1485C286.5 31.4226 286.523 31.6992 286.555 31.9724C286.579 32.1047 286.688 32.2032 286.819 32.2032H311.789C311.861 32.2019 311.93 32.1777 311.988 32.1344C312.045 32.0909 312.087 32.0305 312.108 31.9617L312.295 31.2914Z" fill="#F38020"/>
<path d="M316.603 22.5974L316.228 22.609C316.14 22.609 316.064 22.6747 316.029 22.7615L315.502 24.5965C315.271 25.3876 315.359 26.113 315.743 26.6521C316.095 27.1465 316.689 27.4325 317.402 27.4653L320.282 27.6412C320.37 27.6412 320.446 27.6856 320.49 27.7512C320.535 27.8168 320.546 27.9153 320.523 27.9927C320.479 28.1251 320.348 28.2235 320.204 28.234L317.204 28.4099C315.578 28.4872 313.829 29.795 313.215 31.3981L312.995 31.9583C312.951 32.0684 313.028 32.1787 313.148 32.1787H323.457C323.516 32.1794 323.574 32.1605 323.622 32.1247C323.67 32.0888 323.704 32.038 323.72 31.9805C323.903 31.3306 323.997 30.6588 324 29.9836C323.995 28.0248 323.213 26.1477 321.827 24.7636C320.441 23.3795 318.562 22.601 316.603 22.5985" fill="#FAAE40"/>
</g>
</g>
</g>
<defs>
<clipPath id="clip0_93_19">
<rect width="329.25" height="48" fill="white"/>
</clipPath>
<clipPath id="clip1_93_19">
<rect width="48" height="48" fill="white"/>
</clipPath>
<clipPath id="clip2_93_19">
<rect width="48" height="48" fill="white" transform="translate(56.25)"/>
</clipPath>
<clipPath id="clip3_93_19">
<rect width="48" height="48" fill="white" transform="translate(112.5)"/>
</clipPath>
<clipPath id="clip4_93_19">
<rect width="48" height="48" fill="white" transform="translate(168.75)"/>
</clipPath>
<clipPath id="clip5_93_19">
<rect width="48" height="48" fill="white" transform="translate(225)"/>
</clipPath>
<clipPath id="clip6_93_19">
<rect width="48" height="48" fill="white" transform="translate(281.25)"/>
</clipPath>
</defs>
</svg>
