<svg width="2187" height="3124" viewBox="0 0 2187 3124" fill="none" xmlns="http://www.w3.org/2000/svg">
<g clip-path="url(#clip0_389_602)">
<path d="M1921.03 726.527L1918.9 725.271L1913.97 723.766C1915.95 725.446 1918.44 726.414 1921.03 726.527Z" fill="#0D0C22"/>
<path d="M1921.95 726.173C1921.64 726.136 1921.35 726.067 1921.06 725.961C1921.04 726.161 1921.04 726.361 1921.06 726.554C1921.38 726.511 1921.69 726.38 1921.95 726.173Z" fill="#0D0C22"/>
<path d="M1921.04 726.674H1921.4V726.449L1921.04 726.674Z" fill="#0D0C22"/>
<path d="M1950.21 949.178L1953.8 947.129L1955.13 946.379L1956.35 945.086C1954.07 946.067 1951.99 947.454 1950.21 949.178Z" fill="#0D0C22"/>
<path d="M1927.19 731.329L1923.68 727.987L1921.29 726.688C1922.57 728.949 1924.69 730.611 1927.19 731.329Z" fill="#0D0C22"/>
<path d="M1044.23 2896.76C1041.43 2897.97 1038.96 2899.87 1037.08 2902.28L1039.3 2900.85C1040.8 2899.48 1042.93 2897.85 1044.23 2896.76Z" fill="#0D0C22"/>
<path d="M1556.97 2795.21C1556.97 2792.03 1555.43 2792.62 1555.81 2803.9C1555.81 2802.98 1556.18 2802.06 1556.34 2801.19C1556.56 2799.18 1556.72 2797.21 1556.97 2795.21Z" fill="#0D0C22"/>
<path d="M1503.72 2896.76C1500.91 2897.97 1498.46 2899.87 1496.57 2902.28L1498.79 2900.85C1500.29 2899.48 1502.43 2897.85 1503.72 2896.76Z" fill="#0D0C22"/>
<path d="M683.09 2921.01C680.959 2919.16 678.354 2917.94 675.568 2917.5C677.823 2918.59 680.079 2919.67 681.584 2920.5L683.09 2921.01Z" fill="#0D0C22"/>
<path d="M601.79 2842.67C601.458 2839.38 600.448 2836.19 598.824 2833.31C599.974 2836.31 600.937 2839.38 601.707 2842.5L601.79 2842.67Z" fill="#0D0C22"/>
<path d="M1147.62 1442.89C1036.06 1490.92 909.461 1545.38 745.386 1545.38C676.751 1545.24 608.447 1535.77 542.332 1517.22L655.812 2688.95C659.828 2737.92 682.011 2783.59 717.956 2816.88C753.9 2850.16 800.977 2868.63 849.841 2868.63C849.841 2868.63 1010.74 2877.03 1064.43 2877.03C1122.21 2877.03 1295.48 2868.63 1295.48 2868.63C1344.33 2868.63 1391.4 2850.15 1427.34 2816.86C1463.27 2783.58 1485.45 2737.92 1489.47 2688.95L1611.01 1394.14C1556.7 1375.49 1501.88 1363.1 1440.09 1363.1C1333.21 1363.05 1247.1 1400.07 1147.62 1442.89Z" fill="#0D0C22"/>
<path d="M191.066 942.891L192.989 944.69L194.242 945.439C193.277 944.484 192.212 943.628 191.066 942.891Z" fill="#0D0C22"/>
<path d="M2135.79 834.831L2118.7 748.142C2103.37 670.368 2068.56 596.872 1989.18 568.761C1963.73 559.769 1934.87 555.903 1915.35 537.288C1895.84 518.673 1890.08 489.763 1885.56 462.955C1877.21 413.749 1869.35 364.502 1860.79 315.381C1853.39 273.15 1847.54 225.71 1828.28 186.967C1803.21 134.947 1751.2 104.525 1699.47 84.397C1672.97 74.4463 1645.92 66.0286 1618.46 59.1848C1489.23 24.8966 1353.36 12.2905 1220.41 5.10515C1060.83 -3.75051 900.829 -1.08242 741.633 13.0889C623.145 23.9301 498.344 37.0404 385.744 78.2619C344.59 93.3469 302.182 111.457 270.887 143.435C232.491 182.723 219.956 243.485 247.991 292.48C267.921 327.272 301.68 351.854 337.487 368.115C384.126 389.069 432.834 405.013 482.802 415.682C621.933 446.609 766.033 458.753 908.176 463.921C1065.72 470.316 1223.51 465.134 1380.3 448.416C1419.08 444.13 1457.78 438.989 1496.42 432.994C1541.91 425.977 1571.12 366.141 1557.7 324.457C1541.66 274.621 1498.55 255.292 1449.78 262.814C1442.6 263.948 1435.45 264.999 1428.27 266.049L1423.09 266.805C1406.57 268.906 1390.05 270.867 1373.53 272.688C1339.41 276.386 1305.21 279.412 1270.92 281.764C1194.13 287.143 1117.12 289.622 1040.16 289.748C964.542 289.748 888.873 287.605 813.416 282.605C778.99 280.336 744.644 277.45 710.386 273.949C694.8 272.31 679.258 270.587 663.715 268.655L648.923 266.764L645.705 266.301L630.376 264.074C599.037 259.326 567.701 253.863 536.699 247.266C533.571 246.568 530.773 244.818 528.767 242.304C526.762 239.791 525.669 236.664 525.669 233.441C525.669 230.219 526.762 227.093 528.767 224.579C530.773 222.066 533.571 220.315 536.699 219.617H537.284C564.15 213.86 591.224 208.944 618.382 204.658C627.433 203.229 636.516 201.829 645.624 200.456H645.874C662.878 199.321 679.97 196.254 696.886 194.237C844.114 178.836 992.209 173.585 1140.14 178.522C1211.97 180.622 1283.75 184.867 1355.24 192.178C1370.61 193.775 1385.9 195.456 1401.19 197.347C1407.04 198.061 1412.93 198.901 1418.82 199.616L1430.69 201.338C1465.29 206.521 1499.7 212.81 1533.93 220.205C1584.65 231.299 1649.79 234.912 1672.35 290.799C1679.54 308.531 1682.8 328.239 1686.77 346.853L1691.83 370.595C1691.96 371.021 1692.06 371.456 1692.12 371.897C1704.06 427.924 1716.03 483.951 1728.01 539.977C1728.88 544.116 1728.91 548.392 1728.07 552.54C1727.23 556.687 1725.55 560.616 1723.13 564.081C1720.72 567.547 1717.62 570.475 1714.03 572.683C1710.44 574.891 1706.44 576.33 1702.27 576.913H1701.93L1694.62 577.921L1687.4 578.888C1664.5 581.885 1641.58 584.686 1618.62 587.292C1573.42 592.474 1528.14 596.956 1482.79 600.738C1392.69 608.274 1302.39 613.218 1211.93 615.571C1165.83 616.803 1119.74 617.378 1073.67 617.294C890.291 617.148 707.075 606.43 524.917 585.191C505.196 582.838 485.475 580.317 465.755 577.753C481.047 579.728 454.641 576.24 449.293 575.484C436.759 573.719 424.224 571.885 411.69 569.98C369.616 563.635 327.793 555.819 285.803 548.97C235.039 540.566 186.49 544.767 140.572 569.98C102.88 590.723 72.3748 622.532 53.1238 661.16C33.3195 702.34 27.4284 747.18 18.5707 791.427C9.71313 835.674 -4.0747 883.282 1.14795 928.703C12.3871 1026.74 80.532 1106.41 178.551 1124.22C270.762 1141.03 363.475 1154.65 456.438 1166.24C821.618 1211.23 1190.55 1216.6 1556.87 1182.3C1586.7 1179.49 1616.49 1176.44 1646.24 1173.13C1655.53 1172.11 1664.93 1173.18 1673.76 1176.29C1682.59 1179.39 1690.61 1184.43 1697.24 1191.05C1703.88 1197.68 1708.95 1205.71 1712.1 1214.56C1715.25 1223.41 1716.38 1232.86 1715.43 1242.22L1706.16 1332.9C1687.47 1516.13 1668.77 1699.35 1650.08 1882.56C1630.59 2074.95 1610.97 2267.33 1591.21 2459.7C1585.65 2513.88 1580.07 2568.04 1574.5 2622.19C1569.15 2675.51 1568.41 2730.52 1558.34 2783.21C1542.46 2866.08 1486.68 2916.96 1405.29 2935.58C1330.72 2952.65 1254.55 2961.6 1178.08 2962.3C1093.31 2962.77 1008.58 2958.99 923.799 2959.45C833.306 2959.95 722.461 2951.55 652.602 2883.81C591.224 2824.31 582.742 2731.15 574.386 2650.6C563.244 2543.95 552.2 2437.32 541.253 2330.7L479.835 1737.84L440.101 1354.24C439.433 1347.9 438.764 1341.64 438.138 1335.25C433.374 1289.49 401.161 1244.7 350.397 1247.01C306.944 1248.94 257.559 1286.08 262.656 1335.25L292.112 1619.64L353.029 2207.92C370.382 2375.02 387.694 2542.14 404.963 2709.3C408.306 2741.32 411.439 2773.42 414.949 2805.44C434.043 2980.41 566.907 3074.7 731.444 3101.27C827.541 3116.81 925.973 3120.01 1023.49 3121.6C1148.5 3123.62 1274.76 3128.45 1397.73 3105.68C1579.94 3072.06 1716.64 2949.7 1736.15 2759.89C1741.73 2705.1 1747.3 2650.29 1752.86 2595.47C1771.39 2414.17 1789.88 2232.85 1808.35 2051.52L1868.77 1459.04L1896.47 1187.51C1897.85 1174.04 1903.5 1161.38 1912.59 1151.4C1921.68 1141.42 1933.72 1134.64 1946.94 1132.08C1999.04 1121.87 2048.84 1104.43 2085.91 1064.55C2144.9 1001.06 2156.64 918.283 2135.79 834.831ZM175.877 893.408C176.671 893.027 175.208 899.88 174.582 903.072C174.456 898.237 174.707 893.951 175.877 893.408ZM180.932 932.738C181.35 932.445 182.603 934.125 183.899 936.143C181.935 934.294 180.724 932.907 180.932 932.738ZM185.904 939.335C188.662 944.333 187.701 942.402 185.904 939.335ZM195.89 947.487H196.14C196.14 947.781 196.6 948.075 196.768 948.368C196.49 948.043 196.224 947.75 195.89 947.487ZM1944.52 935.3C1925.8 953.203 1897.6 961.524 1869.73 965.685C1557.2 1012.32 1240.13 1035.94 924.18 1025.52C698.061 1017.75 474.32 992.49 250.456 960.681C228.521 957.57 204.747 953.541 189.665 937.274C161.253 906.601 175.208 844.832 182.603 807.769C189.372 773.817 202.324 728.564 242.476 723.729C305.148 716.333 377.931 742.932 439.934 752.39C514.583 763.847 589.511 773.017 664.715 779.914C985.681 809.325 1312.03 804.745 1631.57 761.717C1689.82 753.846 1747.85 744.7 1805.68 734.28C1857.19 724.991 1914.31 707.55 1945.44 761.211C1966.78 797.768 1969.63 846.681 1966.33 887.986C1965.31 905.983 1957.54 922.912 1944.52 935.3Z" fill="#0D0C22"/>
</g>
<defs>
<clipPath id="clip0_389_602">
<rect width="2186.42" height="3123.45" fill="white"/>
</clipPath>
</defs>
</svg>
